<svg width="5812" height="3265" viewBox="0 0 5812 3265" fill="none" xmlns="http://www.w3.org/2000/svg">
<path d="M2489.56 2452.14H2370.06L2439.45 2438.65L2477.99 2430.94V2425.15L2476.07 2390.45L2474.14 2371.17V2348.04V2311.41L2476.07 2290.2L2477.99 2278.64L2487.63 2242.01L2491.49 2228.51L2497.27 2215.02L2506.91 2189.95L2524.25 2155.25L2530.03 2141.76L2539.67 2130.19L2549.31 2124.41L2566.65 2110.91L2582.07 2099.34L2612.91 2078.14L2614.84 2081.99L2620.62 2083.92L2624.48 2085.85H2634.11L2639.9 2080.06L2643.75 2072.35L2645.68 2062.71L2747.83 2016.44L2780.6 1999.09L2842.27 1968.25L2871.19 1952.82L2909.73 1927.76L2911.66 1929.69L2917.44 1933.55L2927.08 1935.47H2932.86L2938.64 1931.62L2942.5 1925.83V1920.05L2944.43 1914.27L2955.99 1906.56C2960.49 1903.98 2969.87 1898.84 2971.41 1898.84C2972.95 1898.84 2982.33 1892.42 2986.83 1889.2L3000.32 1879.57L3021.52 1868L3040.8 1852.58L3048.51 1845.68L3052.36 1842.94L3058.14 1846.79H3063.93L3069.71 1845.68L3071.64 1842.94L3073.56 1837.15V1831.37V1827.51L3071.64 1825.58L3067.78 1821.73L3069.71 1810.16L3073.56 1788.96L3075.49 1758.11L3079.35 1754.25L3090.91 1736.9L3098.62 1721.48L3104.4 1707.98L3112.11 1694.49L3115.97 1682.92L3119.82 1673.28L3121.75 1659.79L3123.68 1650.15L3125.6 1644.36L3129.46 1636.65V1644.36V1673.28L3123.68 1711.84L3115.97 1750.4L3110.18 1771.6L3100.55 1798.59L3087.05 1827.51L3073.56 1848.72L3054.29 1879.57L3035.01 1902.7L3015.74 1925.83L2996.47 1943.19L2977.19 1960.54L2961.77 1974.03L2934.79 1995.24L2911.66 2014.52L2888.53 2031.87L2869.26 2047.29L2863.48 2051.29L2871.19 2056.93L2940.57 2114.77L2942.5 2112.84H2948.28H2952.14L2957.92 2116.69L2959.85 2122.48V2130.19L2955.99 2135.97L2975.27 2145.61L3000.32 2161.04L3029.23 2184.17L3063.93 2218.87L3115.97 2259.36L3092.84 2174.53L3075.49 2143.68L3069.71 2139.83L3067.78 2134.04L3069.71 2128.26L3077.42 2116.69L3019.6 2093.56L2973.34 2081.99L2967.56 2085.85H2959.85L2954.06 2083.92L2952.14 2078.14V2072.35L2957.92 2066.57H2967.56L2973.34 2074.28V2081.99L3019.6 2093.56L3077.42 2116.69L3083.2 2122.48L3095.73 2145.61L3108.26 2168.75L3123.68 2199.59L3141.02 2249.72L3143.91 2263.21L3152.59 2303.7V2373.1L3144.88 2434.79H3156.44L3193.06 2440.58L3233.54 2450.22L3266.3 2456H3135.24L3129.46 2419.37L3115.97 2390.45L3102.47 2357.68L2655.32 2344.18L3082.69 2328.76L3077.42 2321.05L3054.29 2290.2L3027.31 2263.21L3019.6 2254.91L2718.92 2240.08L2989.47 2224.66L3002.25 2236.22L3019.6 2254.91L3027.31 2263.21L3054.29 2290.2L3077.42 2321.05L3082.69 2328.76L3102.47 2357.68L3115.97 2390.45L3129.46 2419.37L3135.24 2456L3144.88 2434.79L3152.59 2373.1V2303.7L3143.91 2263.21L3141.02 2267.07L3137.17 2269H3133.31L3127.53 2267.07V2259.36H3115.97L3117.89 2297.91H3123.68L3129.46 2303.7L3133.31 2311.41V2319.12L3127.53 2326.83L3131.39 2348.04L3133.31 2366.16L3135.24 2365.39L3141.02 2369.25L3142.95 2376.96L3141.02 2380.81L3133.31 2382.74H3127.53L3125.6 2376.96V2369.25L3133.31 2366.16L3131.39 2348.04L3127.53 2326.83L3119.82 2328.76L3108.26 2324.9L3104.4 2321.05L3100.55 2313.34L3104.4 2305.63L3112.11 2297.91H3117.89L3098.62 2267.07L3090.91 2253.57L3063.93 2218.87L3029.23 2184.17L3000.32 2161.04L2975.27 2145.61L2955.99 2135.97L2950.21 2137.9L2975.27 2162.96L3000.32 2193.81L3025.38 2226.58L3031.16 2224.66L3036.94 2226.58L3040.8 2232.37L3042.72 2240.08L3040.8 2243.93L3035.01 2249.72H3027.31L3021.52 2245.86L3019.6 2240.08V2232.37L3025.38 2226.58L3000.32 2193.81L2975.27 2162.96L2950.21 2137.9L2940.57 2135.97L2936.72 2134.04L2934.79 2126.33V2120.55L2890.46 2097.42L2884.68 2099.34L2876.97 2097.42L2875.04 2093.56V2085.85L2880.82 2081.99H2888.53L2892.39 2085.85V2091.63L2890.46 2097.42L2934.79 2120.55L2940.57 2114.77L2871.19 2056.93L2863.48 2051.29L2844.2 2064.64L2821.07 2081.99L2794.09 2099.34L2767.11 2118.62L2743.98 2134.04L2722.77 2149.47L2701.57 2168.75L2682.3 2184.17L2655.32 2205.38L2637.97 2220.8L2618.69 2240.08L2601.35 2257.43L2585.93 2272.85L2572.44 2288.27L2560.87 2303.7L2546.81 2322.98L2535.68 2342.26L2522.32 2365.39L2510.76 2394.31L2497.27 2427.08L2489.56 2452.14Z" fill="url(#paint0_linear_9_3)"/>
<path d="M3121.75 1588.46L3127.53 1623.16L3121.75 1634.73L3117.89 1642.44L3115.97 1655.93L3112.11 1669.43L3106.33 1682.92L3098.62 1698.35L3090.91 1715.7L3081.27 1734.97V1731.12L3083.2 1725.34L3087.05 1696.42L3088.98 1679.07V1655.93L3094.76 1652.08L3100.55 1650.15L3104.4 1644.36L3108.26 1638.58L3106.33 1632.8L3102.47 1628.94L3098.62 1625.09L3094.76 1623.16H3090.91L3085.13 1627.01L3079.35 1630.87L3077.42 1638.58L3079.35 1644.36L3083.2 1650.15L3081.27 1657.86L3075.49 1669.43L3054.29 1706.06L3040.8 1727.26L3035.01 1736.9L3023.45 1754.25L3002.25 1783.17L2986.83 1804.38L2981.05 1808.23L2977.19 1810.16H2967.56L2959.85 1814.02L2954.06 1819.8V1829.44V1839.08L2938.64 1848.72L2925.15 1858.36L2913.59 1866.07L2902.02 1873.78L2888.53 1883.42L2875.04 1893.06L2865.4 1898.84L2855.77 1904.63L2842.27 1912.34L2826.85 1920.05L2811.44 1929.69L2799.87 1933.55H2794.09L2788.31 1927.76L2782.52 1925.83L2774.81 1927.76L2770.96 1929.69L2765.18 1933.55H2753.61L2765.18 1925.83L2788.31 1910.41L2811.44 1893.06L2832.64 1879.57L2853.84 1862.21L2884.68 1839.08L2909.73 1821.73L2930.93 1804.38L2954.06 1783.17L2977.19 1761.96L3002.25 1736.9L3019.6 1715.7L3038.87 1688.71L3054.29 1665.57L3067.78 1644.36L3075.49 1623.16L3081.27 1600.02L3087.05 1574.96L3088.98 1555.68V1520.98L3087.05 1501.7L3085.13 1484.35L3100.55 1515.2L3112.11 1546.04L3121.75 1588.46Z" fill="url(#paint1_linear_9_3)"/>
<path d="M2572.44 2085.85L2551.24 2112.84L2587.86 2085.85L2607.13 2072.35V2064.64L2610.99 2056.93L2616.77 2053.07L2626.4 2051.15H2634.11L2645.68 2041.51L2690.01 2010.66L2753.61 1972.1L2780.6 1956.68L2774.81 1954.75H2770.96L2767.11 1950.9L2765.18 1943.19L2753.61 1941.26L2742.05 1943.19L2728.56 1950.9L2711.21 1964.39L2693.86 1977.89L2676.52 1993.31L2655.32 2008.73L2636.04 2024.16L2614.84 2045.36L2593.64 2064.64L2572.44 2085.85Z" fill="url(#paint2_linear_9_3)"/>
<path d="M2797.94 1947.04L2799.87 1941.26L2823 1931.62L2846.13 1920.05L2880.82 1898.84L2898.17 1887.28L2927.08 1866.07L2948.28 1852.58L2963.7 1839.08L2971.41 1842.94H2979.12L2984.9 1837.15L2988.76 1829.44V1821.73L2986.83 1814.02L2996.47 1804.38L3013.81 1779.32L3031.16 1754.25L3044.65 1734.97L3069.71 1690.63L3083.2 1669.43V1682.92L3081.27 1698.35L3077.42 1719.55L3075.49 1738.83L3073.56 1744.61L3058.14 1769.68L3038.87 1792.81L3004.18 1831.37L2977.19 1852.58L2954.06 1869.93L2932.86 1887.28L2921.3 1896.92L2913.59 1902.7L2905.88 1906.56L2900.1 1908.48L2875.04 1920.05L2855.77 1927.76L2815.29 1943.19L2794.09 1950.9L2797.94 1947.04Z" fill="url(#paint3_linear_9_3)"/>
<path d="M2651.46 2045.36L2639.9 2056.93L2711.21 2024.16L2772.89 1991.38L2832.64 1960.54L2859.62 1947.04L2902.02 1925.83V1920.05L2848.06 1939.33L2823 1947.04L2803.73 1952.82L2790.23 1958.61L2780.6 1964.39L2759.4 1977.89L2722.77 1999.09L2697.72 2014.52L2670.73 2031.87L2651.46 2045.36Z" fill="url(#paint4_linear_9_3)"/>
<path d="M3063.93 1798.59L3067.78 1771.6L3048.51 1792.81L3033.09 1812.09L3019.6 1829.44L3004.18 1842.94L2992.61 1852.58L2982.97 1860.29L2963.7 1873.78L2946.35 1885.35L2934.79 1893.06L2927.08 1902.7H2930.93L2938.64 1904.63L2963.7 1893.06L2990.68 1877.64L3021.52 1858.36L3042.72 1841.01L3044.65 1835.22V1827.51L3048.51 1821.73L3058.14 1819.8V1814.02L3063.93 1798.59Z" fill="url(#paint5_linear_9_3)"/>
<path d="M3044.65 2145.61L3050.43 2139.83H3056.22L3060.07 2141.76L3063.93 2145.61V2151.4L3060.07 2157.18L3052.36 2159.11L3046.58 2157.18L3042.72 2151.4L3044.65 2145.61Z" fill="url(#paint6_linear_9_3)"/>
<path d="M2742.05 2157.18L2770.96 2134.04L2876.97 2149.47L2742.05 2157.18Z" fill="url(#paint7_linear_9_3)"/>
<path d="M2558.95 1842.94L2553.16 1819.8V1769.68L2568.58 1715.7L2575.19 1704.13L2607.13 1648.22L2610.99 1679.07L2624.48 1704.13L2651.46 1740.76L2676.52 1769.68L2698.2 1792.81L2894.31 1804.38V1808.23L2725.99 1819.8L2705.43 1800.52L2698.2 1792.81L2676.52 1769.68L2651.46 1740.76L2624.48 1704.13L2610.99 1679.07L2607.13 1648.22L2575.19 1704.13L2578.22 1715.7L2587.86 1754.25L2611.67 1808.23L2616.77 1819.8L2676.52 1858.36L2722.77 1887.28L2728.56 1879.57L2740.12 1877.64L2749.76 1883.42V1902.7L2742.05 1906.56H2728.56L2722.77 1902.7V1894.99V1887.28L2676.52 1858.36L2616.77 1819.8L2630.26 1848.72L2651.46 1893.89L2659.17 1894.99L2666.88 1902.7V1914.27L2664.29 1915.56L2655.32 1920.05H2639.9L2634.11 1914.27V1904.63L2567.38 1869.93L2558.95 1842.94Z" fill="url(#paint8_linear_9_3)"/>
<path d="M2620.62 1758.11V1748.47L2622.55 1744.61L2607.13 1721.48V1709.91H2599.42L2591.71 1704.13V1696.42L2595.57 1690.63H2607.13L2612.91 1702.2L2607.13 1709.91V1721.48L2622.55 1744.61L2624.48 1740.76H2639.9L2645.68 1754.25L2643.75 1763.89L2639.9 1764.44L2674.59 1806.31L2705.43 1831.37H2711.21L2716.99 1835.22V1842.94H2707.36L2705.43 1839.08V1835.22V1831.37L2674.59 1806.31L2639.9 1764.44L2630.26 1765.82L2620.62 1758.11Z" fill="url(#paint9_linear_9_3)"/>
<path d="M3013.81 1690.63L2699.65 1707.98L2988.76 1725.34L3013.81 1690.63Z" fill="url(#paint10_linear_9_3)"/>
<path d="M2626.4 1621.23L2651.46 1590.38L2930.93 1607.73L2626.4 1621.23Z" fill="url(#paint11_linear_9_3)"/>
<path d="M2909.73 1497.85L2844.2 1447.72L2855.77 1436.15L2878.89 1422.66L2892.39 1414.95L2903.95 1409.16L2915.52 1411.09L2938.64 1414.95L2952.14 1418.8L2967.56 1422.66L2969.48 1424.59L2973.34 1430.37L2977.19 1434.23L2981.05 1436.15H2986.83L2990.68 1434.23L3008.03 1451.58L3019.6 1467L3029.23 1482.42L3035.01 1505.56L3031.16 1497.85L3021.52 1486.28L3008.03 1472.78L3000.32 1465.07V1463.14L2998.39 1455.43L2996.47 1449.65L2990.68 1445.79H2981.05L2975.27 1447.72L2971.41 1451.58L2969.48 1455.43V1463.14L2971.41 1467L2977.19 1470.86L2982.97 1474.71H2986.83L2990.68 1480.5L2994.54 1492.06L2998.39 1503.63L3002.25 1520.98L3008.03 1536.4L3011.89 1551.83L3013.81 1563.39V1573.03L3009.96 1576.89L3006.1 1580.74V1586.53L3008.03 1592.31L3009.96 1594.24L3013.81 1598.1L3017.67 1600.02H3023.45L3027.31 1598.1L3031.16 1596.17L3035.01 1600.02L3040.8 1611.59L3044.65 1628.94V1644.36L3035.01 1657.86L3029.23 1663.64L3025.38 1642.44L3017.67 1627.01L3011.89 1615.45L3002.25 1600.02L2994.54 1588.46L2981.05 1567.25L2969.48 1551.83L2955.99 1538.33L2946.35 1528.69L2938.64 1520.98L2765.18 1509.41L2909.73 1497.85Z" fill="url(#paint12_linear_9_3)"/>
<path d="M3044.65 1563.39L3046.58 1601.95V1607.73C3042.72 1601.31 3035.01 1588.07 3035.01 1586.53V1582.67L3033.09 1580.74L3031.16 1576.89L3029.23 1574.96H3027.31L3023.45 1573.03L3021.52 1567.25L3017.67 1547.97L3015.74 1536.4C3014.46 1531.26 3011.89 1520.59 3011.89 1519.05C3011.89 1517.51 3010.6 1514.55 3009.96 1513.27L3004.18 1497.85L3000.32 1486.28L2996.47 1478.57L2994.54 1474.71V1471.5L2996.47 1470.86L3004.18 1478.57L3011.89 1486.28L3021.52 1501.7L3035.01 1517.12L3038.87 1530.62L3042.72 1544.11L3044.65 1563.39Z" fill="url(#paint13_linear_9_3)"/>
<path d="M2936.72 1405.31L2919.37 1403.38H2913.59L2927.08 1399.52H2936.72L2948.28 1403.38L2955.99 1405.31L2965.63 1409.16L2969.48 1414.95H2963.7L2954.06 1411.09L2946.35 1409.16L2936.72 1405.31Z" fill="url(#paint14_linear_9_3)"/>
<path d="M2955.99 1399.52L2936.72 1391.81L2967.56 1376.39L2986.83 1366.75L3004.18 1382.17L3027.31 1409.16L3056.22 1457.36L3062 1472.78L3067.78 1495.92L3069.71 1547.97L3067.78 1563.39L3065.85 1580.74L3054.29 1617.37V1600.02L3052.36 1571.11L3050.43 1544.11L3048.51 1530.62L3046.58 1522.91L3044.65 1509.41L3038.87 1486.28L3033.09 1476.64L3027.31 1467L3019.6 1453.5L3004.18 1436.15L2998.39 1430.37L2994.54 1426.51L2996.47 1422.66V1416.88L2992.61 1409.16L2986.83 1407.24H2981.05L2975.27 1409.16L2971.41 1405.31L2963.7 1401.45L2955.99 1399.52Z" fill="url(#paint15_linear_9_3)"/>
<path d="M2524.25 1787.03L2535.82 1814.02L2533.89 1788.96L2539.67 1750.4L2549.31 1715.7L2564.73 1680.99L2585.93 1648.22L2609.06 1611.59L2636.04 1580.74L2674.59 1542.19L2711.21 1509.41L2767.11 1467L2848.06 1413.02L2936.72 1366.75L3027.31 1320.48L3110.18 1276.14L3175.72 1237.58L3241.25 1191.31L3287.51 1152.76L3347.25 1098.78L3397.37 1048.65L3445.55 992.743L3482.17 952.257L3524.58 909.844L3565.05 873.214L3605.53 842.368L3659.49 809.595L3701.9 786.46L3752.01 769.109L3796.34 755.614L3848.38 744.047L3896.57 740.191H3962.1L4012.21 749.83L4058.47 761.398L4124 786.46L4071.96 736.335L4035.34 705.489L3994.86 682.355L3950.53 661.148L3885 639.942L3832.96 632.23L3767.43 634.158L3715.39 641.869L3659.49 657.292L3617.09 674.643L3574.69 697.778L3538.07 722.84L3499.52 753.686L3466.75 780.676L3435.92 813.45L3407 842.368L3381.95 871.287L3356.89 900.205L3318.34 944.546L3291.36 973.464L3266.3 1000.45L3235.47 1029.37L3202.7 1060.22L3164.15 1091.06L3129.46 1114.2L3094.76 1135.41L3058.14 1156.61L3017.67 1177.82L2969.48 1200.95L2919.37 1224.09L2867.33 1249.15L2807.58 1276.14L2761.32 1303.13L2732.41 1320.48L2695.79 1345.54L2674.59 1362.89L2651.46 1382.17L2624.48 1405.31L2603.28 1428.44L2582.07 1449.65L2593.64 1453.5L2601.35 1449.65L2632.19 1434.23L2657.24 1424.59L2678.44 1418.8V1414.95L2680.37 1409.16L2682.3 1405.31L2686.15 1403.38L2690.01 1401.45H2695.79L2701.57 1403.38L2709.28 1405.31L2720.85 1399.52L2730.48 1395.67L2743.98 1391.81L2745.9 1384.1L2751.69 1380.25L2757.47 1376.39H2763.25L2770.96 1380.25L2772.89 1386.03L2774.81 1391.81L2772.89 1399.52L2767.11 1405.31L2759.4 1407.24H2753.61L2745.9 1403.38L2736.27 1409.16L2728.56 1413.02L2715.07 1420.73L2711.21 1424.59L2705.43 1432.3L2695.79 1434.23H2686.15L2678.44 1441.94L2668.81 1449.65L2659.17 1457.36L2641.82 1472.78L2626.4 1488.21L2630.26 1492.06L2634.11 1495.92L2637.97 1499.77V1507.49L2636.04 1513.27L2632.19 1517.12L2626.4 1519.05L2614.84 1517.12L2609.06 1524.84L2591.71 1551.83L2576.29 1576.89L2553.16 1628.94L2537.74 1662.8L2533.89 1673.28L2537.74 1679.07L2539.67 1686.78L2537.74 1694.49L2533.89 1700.27L2526.18 1704.13L2520.4 1727.26L2514.61 1746.54L2516.54 1765.82L2524.25 1787.03Z" fill="url(#paint16_linear_9_3)"/>
<path d="M2520.4 1702.2L2510.76 1736.9L2503.05 1711.84L2504.98 1654L2541.6 1586.53L2537.74 1619.3L2533.89 1642.44L2526.18 1667.5L2524.25 1671.35L2516.54 1673.28L2512.69 1680.99L2510.76 1688.71L2514.61 1696.42L2520.4 1702.2Z" fill="url(#paint17_linear_9_3)"/>
<path d="M2553.16 1573.03L2543.53 1632.8L2568.58 1576.89L2609.06 1513.27L2607.13 1507.49L2576.29 1542.19L2553.16 1573.03Z" fill="url(#paint18_linear_9_3)"/>
<path d="M2549.31 1559.54L2506.91 1632.8L2524.25 1551.83L2547.38 1499.77L2568.58 1470.86L2572.44 1476.64L2555.09 1526.76L2549.31 1559.54Z" fill="url(#paint19_linear_9_3)"/>
<path d="M2564.73 1515.2L2560.87 1551.83L2614.84 1488.21L2645.68 1459.29L2663.03 1443.87L2674.59 1436.15L2680.37 1430.37L2678.44 1428.44L2663.03 1430.37L2637.97 1440.01L2614.84 1451.58L2601.35 1457.36L2597.49 1465.07V1474.71L2587.86 1482.42H2580.15L2564.73 1515.2Z" fill="url(#paint20_linear_9_3)"/>
<path d="M2701.57 1303.13L2639.9 1366.75L2709.28 1310.84L2767.11 1272.28L2811.44 1245.29L2867.33 1218.3L2923.23 1193.24L2969.48 1170.11L3011.89 1150.83L3063.93 1121.91L3114.04 1087.21L3164.15 1052.51L3208.48 1012.02L3245.1 969.608L3275.94 932.979L3302.92 896.349L3329.91 859.719L3356.89 819.234L3385.8 776.821L3420.5 728.624L3466.75 674.643L3505.3 638.014L3549.63 601.384L3588.18 576.322L3630.58 557.043L3663.35 547.404L3715.39 535.836H3809.83L3744.3 512.702L3699.97 501.135L3659.49 495.351H3605.53L3561.2 499.207L3518.79 506.918L3476.39 518.485L3445.55 531.981L3414.71 547.404L3385.8 566.682L3351.11 589.817L3314.49 622.591L3258.59 688.138L3214.26 751.758L3166.08 825.018L3115.97 907.916L3071.64 963.825L3033.09 1012.02L3008.03 1039.01L2851.91 1044.8L2743.98 1052.51L2886.6 1060.22L2977.19 1066L2923.23 1118.05L2859.62 1173.96L2796.02 1224.09L2753.61 1258.79L2701.57 1303.13Z" fill="url(#paint21_linear_9_3)"/>
<path d="M2701.57 1272.28L2643.75 1326.27L2520.4 1262.65L2435.59 1208.66L2381.62 1170.11L2333.44 1127.69L2283.33 1081.42L2242.85 1039.01L2202.37 994.671L2146.48 929.123L2090.59 871.287L2040.47 832.729L1982.65 798.027L1942.17 778.749L1870.86 751.758L1786.05 736.335H1685.83L1624.15 745.975L1566.33 763.326L1522 778.749L1599.1 709.345L1658.85 670.788L1720.52 647.653L1797.62 628.374H1893.99L1982.65 651.509L2055.89 686.211L2140.7 742.119L2231.29 828.873L2318.02 929.123L2414.39 1029.37L2483.78 1089.14L2566.65 1143.12L2661.1 1191.31L2745.9 1233.73L2701.57 1272.28Z" fill="url(#paint22_linear_9_3)"/>
<path d="M2803.73 1185.53L2769.03 1216.38L2695.79 1179.75L2651.46 1156.61L2597.49 1127.69L2537.74 1089.14L2506.91 1067.93L2472.21 1039.01L2443.3 1010.09L2408.61 973.464L2379.7 940.69L2358.49 913.7L2339.22 884.782L2306.45 832.729L2258.27 763.326L2213.94 705.489L2167.68 651.509L2129.13 614.879L2090.59 584.033L2046.25 557.043L2003.85 537.764L1961.45 524.269L1924.83 518.485H1830.39L1903.63 489.567L1969.16 478L2063.6 481.856L2140.7 497.279L2213.94 528.125L2271.76 562.827L2333.44 614.879L2381.62 670.788L2437.52 753.686L2483.78 825.018L2537.74 913.7L2587.86 979.248L2651.46 1044.8L2693.86 1089.14L2745.9 1139.26L2867.33 1148.9L2778.67 1160.47L2803.73 1185.53Z" fill="url(#paint23_linear_9_3)"/>
<path d="M2821.07 2093.56L2869.26 2128.26L2898.17 2149.47L2930.93 2176.46L2961.77 2199.59L2989.47 2224.66M3102.47 2357.68L3115.97 2390.45L3129.46 2419.37L3135.24 2456M3102.47 2357.68L3082.69 2328.76M3102.47 2357.68L2655.32 2344.18L3082.69 2328.76M3135.24 2456H3266.3L3233.54 2450.22L3193.06 2440.58L3156.44 2434.79H3144.88M3135.24 2456L3144.88 2434.79M3144.88 2434.79L3152.59 2373.1V2303.7L3143.91 2263.21M2952.14 1999.09L2990.68 2031.87L3019.6 2056.93L3054.29 2093.56L3077.42 2116.69M2890.46 2097.42L2884.68 2099.34L2876.97 2097.42L2875.04 2093.56V2085.85L2880.82 2081.99H2888.53L2892.39 2085.85V2091.63L2890.46 2097.42ZM2890.46 2097.42L2934.79 2120.55M2940.57 2114.77L2934.79 2120.55M2940.57 2114.77L2942.5 2112.84H2948.28H2952.14L2957.92 2116.69L2959.85 2122.48V2130.19L2955.99 2135.97M2940.57 2114.77L2871.19 2056.93L2863.48 2051.29M2934.79 2120.55V2126.33L2936.72 2134.04L2940.57 2135.97L2950.21 2137.9M2950.21 2137.9L2955.99 2135.97M2950.21 2137.9L2975.27 2162.96L3000.32 2193.81L3025.38 2226.58M2955.99 2135.97L2975.27 2145.61L3000.32 2161.04L3029.23 2184.17L3063.93 2218.87M2952.14 2072.35L2957.92 2066.57H2967.56L2973.34 2074.28V2081.99M2952.14 2072.35V2078.14L2954.06 2083.92L2959.85 2085.85H2967.56L2973.34 2081.99M2952.14 2072.35L2903.95 2053.07L2880.82 2039.58M2973.34 2081.99L3019.6 2093.56L3077.42 2116.69M3077.42 2116.69L3083.2 2122.48L3095.73 2145.61M3077.42 2116.69L3069.71 2128.26L3067.78 2134.04L3069.71 2139.83L3075.49 2143.68M3075.49 2143.68L3083.2 2145.61H3095.73M3075.49 2143.68L3092.84 2174.53L3115.97 2259.36M3095.73 2145.61L3108.26 2168.75L3123.68 2199.59L3141.02 2249.72L3143.91 2263.21M3025.38 2226.58L3019.6 2232.37V2240.08L3021.52 2245.86L3027.31 2249.72H3035.01L3040.8 2243.93L3042.72 2240.08L3040.8 2232.37L3036.94 2226.58L3031.16 2224.66L3025.38 2226.58ZM3127.53 2326.83L3119.82 2328.76L3108.26 2324.9L3104.4 2321.05L3100.55 2313.34L3104.4 2305.63L3112.11 2297.91H3117.89M3127.53 2326.83L3133.31 2319.12V2311.41L3129.46 2303.7L3123.68 2297.91H3117.89M3127.53 2326.83L3131.39 2348.04L3133.31 2366.16M3117.89 2297.91L3115.97 2259.36M3117.89 2297.91L3098.62 2267.07L3090.91 2253.57L3063.93 2218.87M3133.31 2366.16L3135.24 2365.39L3141.02 2369.25L3142.95 2376.96L3141.02 2380.81L3133.31 2382.74H3127.53L3125.6 2376.96V2369.25L3133.31 2366.16ZM3139.09 2249.72H3131.39L3127.53 2253.57V2259.36M3127.53 2259.36V2267.07L3133.31 2269H3137.17L3141.02 2267.07L3143.91 2263.21M3127.53 2259.36H3115.97M3115.97 2259.36L3063.93 2218.87M2863.48 2051.29L2844.2 2064.64L2821.07 2081.99L2794.09 2099.34L2767.11 2118.62L2743.98 2134.04L2722.77 2149.47L2701.57 2168.75L2682.3 2184.17L2655.32 2205.38L2637.97 2220.8L2618.69 2240.08L2601.35 2257.43L2585.93 2272.85L2572.44 2288.27L2560.87 2303.7L2546.81 2322.98L2535.68 2342.26L2522.32 2365.39L2510.76 2394.31L2497.27 2427.08L2489.56 2452.14H2370.06L2439.45 2438.65L2477.99 2430.94V2425.15L2476.07 2390.45L2474.14 2371.17V2348.04V2311.41L2476.07 2290.2L2477.99 2278.64L2487.63 2242.01L2491.49 2228.51L2497.27 2215.02L2506.91 2189.95L2524.25 2155.25L2530.03 2141.76L2539.67 2130.19L2549.31 2124.41L2566.65 2110.91L2582.07 2099.34L2612.91 2078.14L2614.84 2081.99L2620.62 2083.92L2624.48 2085.85H2634.11L2639.9 2080.06L2643.75 2072.35L2645.68 2062.71L2747.83 2016.44L2780.6 1999.09L2842.27 1968.25L2871.19 1952.82L2909.73 1927.76L2911.66 1929.69L2917.44 1933.55L2927.08 1935.47H2932.86L2938.64 1931.62L2942.5 1925.83V1920.05L2944.43 1914.27L2955.99 1906.56C2960.49 1903.99 2969.87 1898.84 2971.41 1898.84C2972.95 1898.84 2982.33 1892.42 2986.83 1889.2L3000.32 1879.57L3021.52 1868L3040.8 1852.58L3048.51 1845.68L3052.36 1842.94L3058.14 1846.79H3063.93L3069.71 1845.68L3071.64 1842.94L3073.56 1837.15V1831.37V1827.51L3071.64 1825.58L3067.78 1821.73L3069.71 1810.16L3073.56 1788.96L3075.49 1758.11L3079.35 1754.25L3090.91 1736.9L3098.62 1721.48L3104.4 1707.98L3112.11 1694.49L3115.97 1682.92L3119.82 1673.28L3121.75 1659.79L3123.68 1650.15L3125.6 1644.36L3129.46 1636.65V1644.36V1673.28L3123.68 1711.84L3115.97 1750.4L3110.18 1771.6L3100.55 1798.59L3087.05 1827.51L3073.56 1848.72L3054.29 1879.57L3035.01 1902.7L3015.74 1925.83L2996.47 1943.19L2977.19 1960.54L2961.77 1974.03L2934.79 1995.24L2911.66 2014.52L2888.53 2031.87L2869.26 2047.29L2863.48 2051.29ZM3082.69 2328.76L3077.42 2321.05L3054.29 2290.2L3027.31 2263.21L3019.6 2254.91M2989.47 2224.66L3002.25 2236.22L3019.6 2254.91M2989.47 2224.66L2718.92 2240.08L3019.6 2254.91M2661.1 1977.89L2607.13 1929.69L2587.86 1904.63L2568.58 1873.78L2567.38 1869.93M2553.16 1769.68V1819.8L2558.95 1842.94L2567.38 1869.93M2553.16 1769.68L2568.58 1715.7L2575.19 1704.13M2553.16 1769.68L2595.57 1808.23M2799.87 1879.57L2736.27 1829.44L2725.99 1819.8M2634.11 1904.63L2639.9 1896.92L2645.68 1893.06L2651.46 1893.89M2634.11 1904.63V1914.27L2639.9 1920.05H2655.32L2664.29 1915.56M2634.11 1904.63L2567.38 1869.93M2666.88 1914.27V1902.7L2659.17 1894.99L2651.46 1893.89M2666.88 1914.27L2664.29 1915.56M2666.88 1914.27L2711.21 1931.62M2722.77 1887.28L2728.56 1879.57L2740.12 1877.64L2749.76 1883.42V1902.7L2742.05 1906.56H2728.56L2722.77 1902.7V1894.99V1887.28ZM2722.77 1887.28L2676.52 1858.36L2616.77 1819.8M2595.57 1808.23V1819.8L2587.86 1821.73L2582.07 1819.8L2578.22 1814.02L2582.07 1808.23L2587.86 1804.38L2595.57 1808.23ZM2595.57 1808.23H2611.67M2607.13 1709.91H2599.42L2591.71 1704.13V1696.42L2595.57 1690.63H2607.13L2612.91 1702.2L2607.13 1709.91ZM2607.13 1709.91V1721.48L2622.55 1744.61M2705.43 1947.04L2664.29 1915.56M2651.46 1893.89L2630.26 1848.72L2616.77 1819.8M2616.77 1819.8L2611.67 1808.23M2575.19 1704.13L2607.13 1648.22L2610.99 1679.07L2624.48 1704.13L2651.46 1740.76L2676.52 1769.68L2698.2 1792.81M2575.19 1704.13L2578.22 1715.7L2587.86 1754.25L2611.67 1808.23M2786.38 1889.2L2716.99 1842.94M2716.99 1842.94V1835.22L2711.21 1831.37H2705.43M2716.99 1842.94H2707.36L2705.43 1839.08V1835.22V1831.37M2705.43 1831.37L2674.59 1806.31L2639.9 1764.44M2639.9 1764.44L2630.26 1765.82L2620.62 1758.11V1748.47L2622.55 1744.61M2639.9 1764.44L2643.75 1763.89L2645.68 1754.25L2639.9 1740.76H2624.48L2622.55 1744.61M2725.99 1819.8L2705.43 1800.52L2698.2 1792.81M2725.99 1819.8L2894.31 1808.23V1804.38L2698.2 1792.81M3127.53 1623.16L3121.75 1588.46L3112.11 1546.04L3100.55 1515.2L3085.13 1484.35L3087.05 1501.7L3088.98 1520.98V1555.68L3087.05 1574.96L3081.27 1600.02L3075.49 1623.16L3067.78 1644.36L3054.29 1665.57L3038.87 1688.71L3019.6 1715.7L3002.25 1736.9L2977.19 1761.96L2954.06 1783.17L2930.93 1804.38L2909.73 1821.73L2884.68 1839.08L2853.84 1862.21L2832.64 1879.57L2811.44 1893.06L2788.31 1910.41L2765.18 1925.83L2753.61 1933.55H2765.18L2770.96 1929.69L2774.81 1927.76L2782.52 1925.83L2788.31 1927.76L2794.09 1933.55H2799.87L2811.44 1929.69L2826.85 1920.05L2842.27 1912.34L2855.77 1904.63L2865.4 1898.84L2875.04 1893.06L2888.53 1883.42L2902.02 1873.78L2913.59 1866.07L2925.15 1858.36L2938.64 1848.72L2954.06 1839.08V1829.44V1819.8L2959.85 1814.02L2967.56 1810.16H2977.19L2981.05 1808.23L2986.83 1804.38L3002.25 1783.17L3023.45 1754.25L3035.01 1736.9L3040.8 1727.26L3054.29 1706.06L3075.49 1669.43L3081.27 1657.86L3083.2 1650.15L3079.35 1644.36L3077.42 1638.58L3079.35 1630.87L3085.13 1627.01L3090.91 1623.16H3094.76L3098.62 1625.09L3102.47 1628.94L3106.33 1632.8L3108.26 1638.58L3104.4 1644.36L3100.55 1650.15L3094.76 1652.08L3088.98 1655.93V1679.07L3087.05 1696.42L3083.2 1725.34L3081.27 1731.12V1734.97L3090.91 1715.7L3098.62 1698.35L3106.33 1682.92L3112.11 1669.43L3115.97 1655.93L3117.89 1642.44L3121.75 1634.73L3127.53 1623.16ZM2551.24 2112.84L2572.44 2085.85L2593.64 2064.64L2614.84 2045.36L2636.04 2024.16L2655.32 2008.73L2676.52 1993.31L2693.86 1977.89L2711.21 1964.39L2728.56 1950.9L2742.05 1943.19L2753.61 1941.26L2765.18 1943.19L2767.11 1950.9L2770.96 1954.75H2774.81L2780.6 1956.68L2753.61 1972.1L2690.01 2010.66L2645.68 2041.51L2634.11 2051.15H2626.4L2616.77 2053.07L2610.99 2056.93L2607.13 2064.64V2072.35L2587.86 2085.85L2551.24 2112.84ZM2799.87 1941.26L2797.94 1947.04L2794.09 1950.9L2815.29 1943.19L2855.77 1927.76L2875.04 1920.05L2900.1 1908.48L2905.88 1906.56L2913.59 1902.7L2921.3 1896.92L2932.86 1887.28L2954.06 1869.93L2977.19 1852.58L3004.18 1831.37L3038.87 1792.81L3058.14 1769.68L3073.56 1744.61L3075.49 1738.83L3077.42 1719.55L3081.27 1698.35L3083.2 1682.92V1669.43L3069.71 1690.63L3044.65 1734.97L3031.16 1754.25L3013.81 1779.32L2996.47 1804.38L2986.83 1814.02L2988.76 1821.73V1829.44L2984.9 1837.15L2979.12 1842.94H2971.41L2963.7 1839.08L2948.28 1852.58L2927.08 1866.07L2898.17 1887.28L2880.82 1898.84L2846.13 1920.05L2823 1931.62L2799.87 1941.26ZM2639.9 2056.93L2651.46 2045.36L2670.73 2031.87L2697.72 2014.52L2722.77 1999.09L2759.4 1977.89L2780.6 1964.39L2790.23 1958.61L2803.73 1952.82L2823 1947.04L2848.06 1939.33L2902.02 1920.05V1925.83L2859.62 1947.04L2832.64 1960.54L2772.89 1991.38L2711.21 2024.16L2639.9 2056.93ZM3067.78 1771.6L3063.93 1798.59L3058.14 1814.02V1819.8L3048.51 1821.73L3044.65 1827.51V1835.22L3042.72 1841.01L3021.52 1858.36L2990.68 1877.64L2963.7 1893.06L2938.64 1904.63L2930.93 1902.7H2927.08L2934.79 1893.06L2946.35 1885.35L2963.7 1873.78L2982.97 1860.29L2992.61 1852.58L3004.18 1842.94L3019.6 1829.44L3033.09 1812.09L3048.51 1792.81L3067.78 1771.6ZM3050.43 2139.83L3044.65 2145.61L3042.72 2151.4L3046.58 2157.18L3052.36 2159.11L3060.07 2157.18L3063.93 2151.4V2145.61L3060.07 2141.76L3056.22 2139.83H3050.43ZM2770.96 2134.04L2742.05 2157.18L2876.97 2149.47L2770.96 2134.04ZM2699.65 1707.98L3013.81 1690.63L2988.76 1725.34L2699.65 1707.98ZM2651.46 1590.38L2626.4 1621.23L2930.93 1607.73L2651.46 1590.38ZM2844.2 1447.72L2909.73 1497.85L2765.18 1509.41L2938.64 1520.98L2946.35 1528.69L2955.99 1538.33L2969.48 1551.83L2981.05 1567.25L2994.54 1588.46L3002.25 1600.02L3011.89 1615.45L3017.67 1627.01L3025.38 1642.44L3029.23 1663.64L3035.01 1657.86L3044.65 1644.36V1628.94L3040.8 1611.59L3035.01 1600.02L3031.16 1596.17L3027.31 1598.1L3023.45 1600.02H3017.67L3013.81 1598.1L3009.96 1594.24L3008.03 1592.31L3006.1 1586.53V1580.74L3009.96 1576.89L3013.81 1573.03V1563.39L3011.89 1551.83L3008.03 1536.4L3002.25 1520.98L2998.39 1503.63L2994.54 1492.06L2990.68 1480.5L2986.83 1474.71H2982.97L2977.19 1470.86L2971.41 1467L2969.48 1463.14V1455.43L2971.41 1451.58L2975.27 1447.72L2981.05 1445.79H2990.68L2996.47 1449.65L2998.39 1455.43L3000.32 1463.14V1465.07L3008.03 1472.78L3021.52 1486.28L3031.16 1497.85L3035.01 1505.56L3029.23 1482.42L3019.6 1467L3008.03 1451.58L2990.68 1434.23L2986.83 1436.15H2981.05L2977.19 1434.23L2973.34 1430.37L2969.48 1424.59L2967.56 1422.66L2952.14 1418.8L2938.64 1414.95L2915.52 1411.09L2903.95 1409.16L2892.39 1414.95L2878.89 1422.66L2855.77 1436.15L2844.2 1447.72ZM3046.58 1601.95L3044.65 1563.39L3042.72 1544.11L3038.87 1530.62L3035.01 1517.12L3021.52 1501.7L3011.89 1486.28L3004.18 1478.57L2996.47 1470.86L2994.54 1471.5V1474.71L2996.47 1478.57L3000.32 1486.28L3004.18 1497.85L3009.96 1513.27C3010.6 1514.55 3011.89 1517.51 3011.89 1519.05C3011.89 1520.59 3014.46 1531.26 3015.74 1536.4L3017.67 1547.97L3021.52 1567.25L3023.45 1573.03L3027.31 1574.96H3029.23L3031.16 1576.89L3033.09 1580.74L3035.01 1582.67C3035.01 1583.32 3035.01 1584.99 3035.01 1586.53C3035.01 1588.07 3042.72 1601.31 3046.58 1607.73V1601.95ZM2919.37 1403.38L2936.72 1405.31L2946.35 1409.16L2954.06 1411.09L2963.7 1414.95H2969.48L2965.63 1409.16L2955.99 1405.31L2948.28 1403.38L2936.72 1399.52H2927.08L2913.59 1403.38H2919.37ZM2936.72 1391.81L2955.99 1399.52L2963.7 1401.45L2971.41 1405.31L2975.27 1409.16L2981.05 1407.24H2986.83L2992.61 1409.16L2996.47 1416.88V1422.66L2994.54 1426.51L2998.39 1430.37L3004.18 1436.15L3019.6 1453.5L3027.31 1467L3033.09 1476.64L3038.87 1486.28L3044.65 1509.41L3046.58 1522.91L3048.51 1530.62L3050.43 1544.11L3052.36 1571.11L3054.29 1600.02V1617.37L3065.85 1580.74L3067.78 1563.39L3069.71 1547.97L3067.78 1495.92L3062 1472.78L3056.22 1457.36L3027.31 1409.16L3004.18 1382.17L2986.83 1366.75L2967.56 1376.39L2936.72 1391.81ZM2535.82 1814.02L2524.25 1787.03L2516.54 1765.82L2514.61 1746.54L2520.4 1727.26L2526.18 1704.13L2533.89 1700.27L2537.74 1694.49L2539.67 1686.78L2537.74 1679.07L2533.89 1673.28L2537.74 1662.8L2553.16 1628.94L2576.29 1576.89L2591.71 1551.83L2609.06 1524.84L2614.84 1517.12L2626.4 1519.05L2632.19 1517.12L2636.04 1513.27L2637.97 1507.49V1499.77L2634.11 1495.92L2630.26 1492.06L2626.4 1488.21L2641.82 1472.78L2659.17 1457.36L2668.81 1449.65L2678.44 1441.94L2686.15 1434.23H2695.79L2705.43 1432.3L2711.21 1424.59L2715.07 1420.73L2728.56 1413.02L2736.27 1409.16L2745.9 1403.38L2753.61 1407.24H2759.4L2767.11 1405.31L2772.89 1399.52L2774.81 1391.81L2772.89 1386.03L2770.96 1380.25L2763.25 1376.39H2757.47L2751.69 1380.25L2745.9 1384.1L2743.98 1391.81L2730.48 1395.67L2720.85 1399.52L2709.28 1405.31L2701.57 1403.38L2695.79 1401.45H2690.01L2686.15 1403.38L2682.3 1405.31L2680.37 1409.16L2678.44 1414.95V1418.8L2657.24 1424.59L2632.19 1434.23L2601.35 1449.65L2593.64 1453.5L2582.07 1449.65L2603.28 1428.44L2624.48 1405.31L2651.46 1382.17L2674.59 1362.89L2695.79 1345.54L2732.41 1320.48L2761.32 1303.13L2807.58 1276.14L2867.33 1249.15L2919.37 1224.09L2969.48 1200.95L3017.67 1177.82L3058.14 1156.61L3094.76 1135.41L3129.46 1114.2L3164.15 1091.06L3202.7 1060.22L3235.47 1029.37L3266.3 1000.45L3291.36 973.464L3318.34 944.546L3356.89 900.205L3381.95 871.287L3407 842.368L3435.92 813.45L3466.75 780.676L3499.52 753.686L3538.07 722.84L3574.69 697.778L3617.09 674.643L3659.49 657.292L3715.39 641.869L3767.43 634.158L3832.96 632.23L3885 639.942L3950.53 661.148L3994.86 682.355L4035.34 705.489L4071.96 736.335L4124 786.46L4058.47 761.398L4012.21 749.83L3962.1 740.191H3896.57L3848.38 744.047L3796.34 755.614L3752.01 769.109L3701.9 786.46L3659.49 809.595L3605.53 842.368L3565.05 873.214L3524.58 909.844L3482.17 952.257L3445.55 992.743L3397.37 1048.65L3347.25 1098.78L3287.51 1152.76L3241.25 1191.31L3175.72 1237.58L3110.18 1276.14L3027.31 1320.48L2936.72 1366.75L2848.06 1413.02L2767.11 1467L2711.21 1509.41L2674.59 1542.19L2636.04 1580.74L2609.06 1611.59L2585.93 1648.22L2564.73 1680.99L2549.31 1715.7L2539.67 1750.4L2533.89 1788.96L2535.82 1814.02ZM2510.76 1736.9L2520.4 1702.2L2514.61 1696.42L2510.76 1688.71L2512.69 1680.99L2516.54 1673.28L2524.25 1671.35L2526.18 1667.5L2533.89 1642.44L2537.74 1619.3L2541.6 1586.53L2504.98 1654L2503.05 1711.84L2510.76 1736.9ZM2543.53 1632.8L2553.16 1573.03L2576.29 1542.19L2607.13 1507.49L2609.06 1513.27L2568.58 1576.89L2543.53 1632.8ZM2506.91 1632.8L2549.31 1559.54L2555.09 1526.76L2572.44 1476.64L2568.58 1470.86L2547.38 1499.77L2524.25 1551.83L2506.91 1632.8ZM2560.87 1551.83L2564.73 1515.2L2580.15 1482.42H2587.86L2597.49 1474.71V1465.07L2601.35 1457.36L2614.84 1451.58L2637.97 1440.01L2663.03 1430.37L2678.44 1428.44L2680.37 1430.37L2674.59 1436.15L2663.03 1443.87L2645.68 1459.29L2614.84 1488.21L2560.87 1551.83ZM2639.9 1366.75L2701.57 1303.13L2753.61 1258.79L2796.02 1224.09L2859.62 1173.96L2923.23 1118.05L2977.19 1066L2886.6 1060.22L2743.98 1052.51L2851.91 1044.8L3008.03 1039.01L3033.09 1012.02L3071.64 963.825L3115.97 907.916L3166.08 825.018L3214.26 751.758L3258.59 688.138L3314.49 622.591L3351.11 589.817L3385.8 566.682L3414.71 547.404L3445.55 531.981L3476.39 518.485L3518.79 506.918L3561.2 499.207L3605.53 495.351H3659.49L3699.97 501.135L3744.3 512.702L3809.83 535.836H3715.39L3663.35 547.404L3630.58 557.043L3588.18 576.322L3549.63 601.384L3505.3 638.014L3466.75 674.643L3420.5 728.624L3385.8 776.821L3356.89 819.234L3329.91 859.719L3302.92 896.349L3275.94 932.979L3245.1 969.608L3208.48 1012.02L3164.15 1052.51L3114.04 1087.21L3063.93 1121.91L3011.89 1150.83L2969.48 1170.11L2923.23 1193.24L2867.33 1218.3L2811.44 1245.29L2767.11 1272.28L2709.28 1310.84L2639.9 1366.75ZM2643.75 1326.27L2701.57 1272.28L2745.9 1233.73L2661.1 1191.31L2566.65 1143.12L2483.78 1089.14L2414.39 1029.37L2318.02 929.123L2231.29 828.873L2140.7 742.119L2055.89 686.211L1982.65 651.509L1893.99 628.374H1797.62L1720.52 647.653L1658.85 670.788L1599.1 709.345L1522 778.749L1566.33 763.326L1624.15 745.975L1685.83 736.335H1786.05L1870.86 751.758L1942.17 778.749L1982.65 798.027L2040.47 832.729L2090.59 871.287L2146.48 929.123L2202.37 994.671L2242.85 1039.01L2283.33 1081.42L2333.44 1127.69L2381.62 1170.11L2435.59 1208.66L2520.4 1262.65L2643.75 1326.27ZM2769.03 1216.38L2803.73 1185.53L2778.67 1160.47L2867.33 1148.9L2745.9 1139.26L2693.86 1089.14L2651.46 1044.8L2587.86 979.248L2537.74 913.7L2483.78 825.018L2437.52 753.686L2381.62 670.788L2333.44 614.879L2271.76 562.827L2213.94 528.125L2140.7 497.279L2063.6 481.856L1969.16 478L1903.63 489.567L1830.39 518.485H1924.83L1961.45 524.269L2003.85 537.764L2046.25 557.043L2090.59 584.033L2129.13 614.879L2167.68 651.509L2213.94 705.489L2258.27 763.326L2306.45 832.729L2339.22 884.782L2358.49 913.7L2379.7 940.69L2408.61 973.464L2443.3 1010.09L2472.21 1039.01L2506.91 1067.93L2537.74 1089.14L2597.49 1127.69L2651.46 1156.61L2695.79 1179.75L2769.03 1216.38Z" stroke="url(#paint24_linear_9_3)" stroke-width="4"/>
<path d="M3747.14 484.175C3793.83 484.175 3833.25 505.382 3833.25 516.806V615.679C3833.25 667.336 3795.83 709.213 3749.68 709.213C3703.53 709.213 3666.12 667.336 3666.12 615.679V547.182L3661.98 552.332L3657.43 556.45L3654.54 564.274L3649.99 574.569L3645.44 581.982L3641.71 587.336L3636.34 593.102L3630.13 597.632L3624.75 600.515L3618.14 602.985L3612.34 603.809H3597.87L3587.11 601.338L3578.84 597.632L3569.74 592.278L3560.22 585.688L3550.71 577.864L3541.19 567.98L3548.22 572.511L3556.09 577.041L3564.36 580.335L3573.05 583.218L3580.49 585.277L3590.83 586.513H3604.9L3612.34 585.277L3619.79 583.218L3628.89 579.512L3640.06 572.511L3648.33 566.333L3657.43 556.45L3649.16 561.392L3640.89 565.51L3631.37 567.569L3624.75 568.805H3613.17L3606.55 567.569L3597.87 565.51L3589.59 562.627L3580.08 557.686L3573.05 553.567L3585.04 555.215L3593.73 556.45H3610.69L3616.48 556.038L3622.27 554.391L3630.13 551.097L3638.82 546.154L3646.68 540.801L3651.64 536.271L3656.61 530.506L3661.16 523.916L3664.88 516.915L3666.95 511.974V513.709C3672.81 501.94 3709.03 484.175 3747.14 484.175ZM3860.13 381.396C3875.2 381.075 3877.98 381.396 3880.39 381.396H3950.61C3983.35 381.397 4009.88 418.805 4009.88 464.951C4009.88 511.097 3983.35 548.506 3950.61 548.506H3880.39C3877.98 548.506 3875.2 548.828 3860.13 548.506C3851.03 494.322 3836.44 476.534 3784.85 466.186C3843.77 451.3 3850.82 425.239 3860.13 381.396ZM3611.46 361.404C3613.79 361.404 3616.34 361.331 3630.96 361.653C3640.15 417.243 3647.67 433.376 3710.8 443.711C3660.1 446.614 3644.61 483.017 3640.15 528.264C3625.53 528.586 3613.79 528.514 3611.46 528.514H3543.29C3511.52 528.513 3485.76 491.105 3485.76 444.959C3485.76 398.813 3511.52 361.405 3543.29 361.404H3611.46ZM3741.41 186C3787.56 186 3824.97 227.877 3824.97 279.534V362.824L3830.86 358.11L3830.9 358.085L3835.86 354.775L3835.89 354.758L3841.68 351.448L3841.71 351.433L3841.74 351.421L3846.7 349.353L3846.73 349.341L3846.76 349.332L3854.21 347.264L3854.23 347.259L3854.24 347.256L3860.45 346.015L3860.5 346.005H3875.89L3875.93 346.011L3881.31 346.838L3881.33 346.842L3881.36 346.849L3887.57 348.504L3887.57 348.506L3887.58 348.509L3892.96 350.163L3892.98 350.171L3893.01 350.18L3897.97 352.248L3897.98 352.253L3905.43 355.562L3905.44 355.569L3905.46 355.578L3911.66 358.888L3911.35 359.822L3906.01 359L3898.18 358.588H3883.32L3878.81 358.997L3872.25 360.228L3866.9 361.875L3860.73 363.931L3854.57 366.806L3847.58 370.916L3842.24 374.612L3837.32 379.125L3833.61 382.832L3829.51 387.757L3826.21 392.699L3826.19 392.741L3826.15 392.775L3825.33 393.604L3824.59 394.342C3822.73 403.857 3814.35 411.038 3804.29 411.038H3678.53C3667.11 411.038 3657.85 401.778 3657.85 390.354V279.534C3657.85 227.877 3695.26 186 3741.41 186ZM3890.86 280.658L3901.2 283.141L3901.22 283.145L3901.24 283.149L3914.47 287.286L3914.5 287.294L3914.52 287.305L3926.93 292.683L3926.97 292.696L3927 292.715L3941.89 301.815L3941.47 302.718L3931.16 299.417L3923.75 297.771L3916.74 296.532L3908.91 295.709H3899.88L3891.64 296.531L3884.64 297.768L3878.07 299.411L3871.5 301.875L3864.11 305.569L3856.3 310.915L3849.3 316.674L3843.96 322.016L3839.02 328.188L3835.74 333.108L3831.61 340.542L3830.68 340.25L3831.92 327.84L3831.93 327.784L3831.94 327.731L3834.84 319.044L3834.84 319.037L3837.74 310.764L3837.75 310.733L3837.76 310.705L3841.49 303.259L3841.51 303.215L3841.54 303.176L3847.33 295.729L3847.35 295.705L3847.37 295.684L3853.99 289.064L3854.04 289.01L3854.11 288.975L3863.63 284.011L3863.67 283.989L3863.71 283.976L3874.46 280.667L3874.54 280.645H3890.8L3890.86 280.658Z" fill="url(#paint25_linear_9_3)"/>
<path d="M3741.82 200.065C3781.35 200.065 3813.39 236.553 3813.39 281.563V378.124C3813.39 388.077 3805.46 396.146 3795.67 396.146H3687.97C3678.19 396.146 3670.26 388.077 3670.26 378.124V281.563C3670.26 236.553 3702.3 200.065 3741.82 200.065ZM3681.8 346.679C3681.44 346.679 3681.11 346.87 3680.93 347.179L3674.68 358.001C3674.51 358.311 3674.51 358.692 3674.68 359.001L3680.93 369.824C3681.11 370.133 3681.44 370.324 3681.8 370.324H3694.29C3694.65 370.324 3694.98 370.133 3695.16 369.824L3701.41 359.001C3701.59 358.692 3701.59 358.311 3701.41 358.001L3695.16 347.179C3694.98 346.87 3694.65 346.679 3694.29 346.679H3681.8ZM3679.2 309.099C3678.65 309.099 3678.2 309.547 3678.2 310.099V322.324C3678.2 322.876 3678.65 323.324 3679.2 323.324H3691.42C3691.97 323.324 3692.42 322.876 3692.42 322.324V310.099C3692.42 309.547 3691.97 309.099 3691.42 309.099H3679.2ZM3705.79 293.345C3705.43 293.345 3705.1 293.536 3704.92 293.845L3697.02 307.534C3696.84 307.843 3696.84 308.224 3697.02 308.534L3704.92 322.221C3705.1 322.531 3705.43 322.721 3705.79 322.721H3721.6C3721.95 322.721 3722.28 322.531 3722.46 322.221L3730.37 308.534C3730.54 308.224 3730.54 307.843 3730.37 307.534L3722.46 293.845C3722.28 293.536 3721.95 293.345 3721.6 293.345H3705.79ZM3768.26 286.01C3767.9 286.01 3767.57 286.201 3767.39 286.51L3759.07 300.915C3758.89 301.224 3758.89 301.605 3759.07 301.915L3767.39 316.319C3767.57 316.628 3767.9 316.819 3768.26 316.819H3784.89C3785.25 316.819 3785.58 316.628 3785.75 316.319L3794.07 301.915C3794.25 301.605 3794.25 301.224 3794.07 300.915L3785.75 286.51C3785.58 286.201 3785.25 286.01 3784.89 286.01H3768.26ZM3719.27 214.708C3718.57 213.549 3717.07 213.162 3715.89 213.834L3714.69 214.523L3714.68 214.528L3710.54 217.01L3710.52 217.02L3710.51 217.032L3704.72 221.168L3704.71 221.176L3704.7 221.185L3700.56 224.495L3700.54 224.512L3696.37 228.677L3696.36 228.687L3692.64 232.824L3692.62 232.843L3692.61 232.865L3689.3 237.415L3689.28 237.442L3689.26 237.472L3686.37 242.849L3686.35 242.87L3686.35 242.89L3683.86 248.681L3683.86 248.692L3683.86 248.703L3681.37 255.321L3681.36 255.348L3681.36 255.375L3679.7 261.995L3679.7 262.017L3679.69 262.04L3678.87 267.417L3678.86 267.427L3678.04 273.632L3678.03 273.666V299.415C3678.03 300.795 3679.15 301.915 3680.53 301.915H3689.36C3690.74 301.914 3691.86 300.795 3691.86 299.415V271.66L3692.67 265.105L3693.49 261.841L3694.31 259.378L3695.14 256.896L3695.92 254.548C3695.94 254.481 3695.97 254.415 3696 254.352L3697.18 251.998L3698.41 249.542L3700.05 247.087L3701.69 244.625L3703.33 242.572L3704.98 240.502L3707.03 238.045L3709.07 236.01L3712.35 233.14L3716.04 230.679L3719.74 228.208L3722.61 226.571L3723.15 226.303C3724.45 225.65 3724.92 224.019 3724.16 222.77L3719.27 214.708ZM3742.61 264.055C3742.25 264.055 3741.92 264.246 3741.74 264.555L3735.08 276.094C3734.9 276.404 3734.9 276.785 3735.08 277.094L3741.74 288.633C3741.92 288.943 3742.25 289.133 3742.61 289.133H3755.93C3756.29 289.133 3756.62 288.943 3756.8 288.633L3763.46 277.094C3763.64 276.785 3763.64 276.404 3763.46 276.094L3756.8 264.555C3756.62 264.246 3756.29 264.055 3755.93 264.055H3742.61Z" fill="white"/>
<path d="M3689.34 555.723C3689.34 555.053 3689.98 554.573 3690.63 554.765L3707.71 559.887C3708.14 560.014 3708.43 560.403 3708.43 560.845L3708.43 576.587C3708.43 577.139 3707.98 577.587 3707.43 577.587L3690.34 577.587C3689.79 577.587 3689.34 577.139 3689.34 576.587L3689.34 555.723Z" fill="white" fill-opacity="0.5"/>
<path d="M3812.69 565.188H3821.52C3822.62 565.188 3823.52 566.084 3823.52 567.188V617.228V623.847L3822.69 630.052L3821.86 635.43L3820.21 642.049L3817.72 648.667L3815.24 654.459L3812.35 659.837L3809.04 664.387L3805.31 668.524L3801.18 672.66L3797.04 675.97L3794.15 678.038L3791.25 680.107L3787.11 682.589L3785.91 683.277C3784.97 683.815 3783.77 683.505 3783.21 682.578L3778.31 674.516C3777.7 673.517 3778.08 672.212 3779.13 671.69L3779.67 671.419L3782.56 669.765L3786.29 667.283L3790.01 664.801L3793.32 661.905L3795.39 659.837L3797.45 657.355L3799.11 655.286L3800.76 653.218L3802.42 650.736L3804.07 648.254L3805.31 645.772L3806.49 643.417C3806.53 643.332 3806.57 643.245 3806.6 643.155L3807.38 640.808L3808.21 638.326L3809.04 635.844L3809.86 632.534L3810.28 629.225L3810.69 625.916V622.606L3810.69 567.188C3810.69 566.084 3811.59 565.188 3812.69 565.188Z" fill="white"/>
<path d="M3697.02 375.962C3696.84 375.653 3696.84 375.271 3697.02 374.962L3704.72 361.632C3704.9 361.322 3705.23 361.132 3705.58 361.132H3720.98C3721.33 361.132 3721.66 361.322 3721.84 361.632L3729.54 374.962C3729.72 375.271 3729.72 375.653 3729.54 375.962L3721.84 389.292C3721.66 389.601 3721.33 389.792 3720.98 389.792H3705.58C3705.23 389.792 3704.9 389.601 3704.72 389.292L3697.02 375.962Z" fill="#00329C"/>
<path d="M3705.3 342.041C3705.12 341.731 3705.12 341.35 3705.3 341.041L3712.99 327.711C3713.17 327.401 3713.5 327.211 3713.86 327.211H3729.25C3729.61 327.211 3729.94 327.401 3730.12 327.711L3737.81 341.041C3737.99 341.35 3737.99 341.731 3737.81 342.041L3730.12 355.371C3729.94 355.68 3729.61 355.871 3729.25 355.871H3713.86C3713.5 355.871 3713.17 355.68 3712.99 355.371L3705.3 342.041Z" fill="#AEFF00"/>
<path d="M3764.04 361.483C3763.86 361.174 3763.86 360.793 3764.04 360.483L3770.7 348.945C3770.88 348.635 3771.21 348.445 3771.57 348.445H3784.89C3785.25 348.445 3785.58 348.635 3785.75 348.945L3792.42 360.483C3792.6 360.793 3792.6 361.174 3792.42 361.483L3785.75 373.022C3785.58 373.331 3785.25 373.522 3784.89 373.522H3771.57C3771.21 373.522 3770.88 373.331 3770.7 373.022L3764.04 361.483Z" fill="#00329C"/>
<path d="M3742.53 378.444C3742.35 378.135 3742.35 377.753 3742.53 377.444L3747.33 369.129C3747.51 368.82 3747.84 368.629 3748.19 368.629H3757.79C3758.15 368.629 3758.48 368.82 3758.66 369.129L3763.46 377.444C3763.64 377.753 3763.64 378.135 3763.46 378.444L3758.66 386.759C3758.48 387.068 3758.15 387.259 3757.79 387.259H3748.19C3747.84 387.259 3747.51 387.068 3747.33 386.759L3742.53 378.444Z" fill="#00329C"/>
<path d="M3740.42 340.727C3740.42 340.175 3740.87 339.727 3741.42 339.727L3754.63 339.727C3755.19 339.727 3755.63 340.175 3755.63 340.727L3755.63 353.937C3755.63 354.49 3755.19 354.937 3754.63 354.937L3741.42 354.937C3740.87 354.937 3740.42 354.49 3740.42 353.937L3740.42 340.727Z" fill="#00329C"/>
<path d="M3689.87 584.285C3689.87 583.733 3690.32 583.285 3690.87 583.285L3707.06 583.285C3707.61 583.285 3708.06 583.733 3708.06 584.285L3708.06 616.943C3708.06 617.496 3707.61 617.943 3707.06 617.943L3690.87 617.944C3690.32 617.944 3689.87 617.496 3689.87 616.944L3689.87 584.285Z" fill="white" fill-opacity="0.5"/>
<path d="M3757.29 312.916C3757.29 312.363 3757.74 311.916 3758.29 311.916L3771.5 311.916C3772.05 311.916 3772.5 312.363 3772.5 312.916L3772.5 326.126C3772.5 326.678 3772.05 327.126 3771.5 327.126L3758.29 327.126C3757.74 327.126 3757.29 326.678 3757.29 326.126L3757.29 312.916Z" fill="#00329C"/>
<path d="M3689.45 643.857C3689.45 643.304 3689.9 642.857 3690.45 642.857L3706.51 642.857C3707.07 642.857 3707.51 643.304 3707.51 643.857L3707.51 659.92C3707.51 660.472 3707.07 660.92 3706.51 660.92L3690.45 660.92C3689.9 660.92 3689.45 660.472 3689.45 659.92L3689.45 643.857Z" fill="white" fill-opacity="0.5"/>
<path d="M3711.79 270.721C3711.79 270.169 3712.23 269.721 3712.79 269.721L3726 269.721C3726.55 269.721 3727 270.169 3727 270.721L3727 283.932C3727 284.484 3726.55 284.932 3726 284.932L3712.79 284.932C3712.23 284.932 3711.79 284.484 3711.79 283.932L3711.79 270.721Z" fill="#AEFF00"/>
<path d="M3766.39 250.038C3766.39 249.485 3766.84 249.038 3767.39 249.038L3780.6 249.038C3781.15 249.038 3781.6 249.485 3781.6 250.038L3781.6 263.248C3781.6 263.8 3781.15 264.248 3780.6 264.248L3767.39 264.248C3766.84 264.248 3766.39 263.8 3766.39 263.248L3766.39 250.038Z" fill="#AEFF00"/>
<path d="M3783.89 381.753C3783.71 381.444 3783.71 381.063 3783.89 380.753L3788.69 372.439C3788.87 372.129 3789.2 371.939 3789.56 371.939H3799.16C3799.52 371.939 3799.85 372.129 3800.03 372.439L3804.83 380.753C3805.01 381.063 3805.01 381.444 3804.83 381.753L3800.03 390.068C3799.85 390.377 3799.52 390.568 3799.16 390.568H3789.56C3789.2 390.568 3788.87 390.377 3788.69 390.068L3783.89 381.753Z" fill="#00329C"/>
<path d="M3823.77 524.227C3823.77 537.712 3784.39 552.527 3746.08 552.527C3707.78 552.527 3672.84 537.712 3672.84 524.227C3672.84 510.743 3707.78 493.708 3746.08 493.708C3784.39 493.708 3823.77 510.743 3823.77 524.227Z" fill="white" fill-opacity="0.5"/>
<path d="M3740.53 493.708L3752.19 493.708L3763.29 494.817L3718.89 550.308L3705.02 546.978L3692.81 542.539L3740.53 493.708Z" fill="#00329C" fill-opacity="0.5"/>
<path d="M2044.68 659.352L2044.67 659.406L2043.51 664.634L2043.49 664.709L2043.45 664.774L2038.81 672.908L2038.78 672.955L2038.74 672.994L2033.52 678.804L2033.46 678.87L2033.38 678.911L2024.66 683.558L2024.62 683.582L2024.57 683.596L2012.95 687.082L2012.93 687.089L2012.91 687.092L1993.74 691.159L1993.73 691.162L1993.72 691.164L1979.19 693.488L1979.18 693.49L1979.16 693.492L1960.57 695.235L1960.56 695.236V695.235L1945.45 696.397L1945.44 696.399H1871.02L1871 696.396L1837.3 692.911L1837.29 692.909L1823.35 691.167L1823.34 691.165L1823.33 691.164L1812.87 689.421L1812.85 689.418L1812.84 689.414L1802.96 687.089L1802.93 687.083L1802.9 687.071L1793.6 683.586L1793.59 683.58L1793.57 683.573L1787.18 680.668L1787.12 680.64L1787.07 680.599L1780.68 675.371L1780.65 675.345L1780.62 675.316L1775.98 670.087L1775.93 670.038L1775.9 669.978L1773 664.169L1772.97 664.12L1772.96 664.066L1771.22 657.094L1771.2 657.035V648.704L1771.88 648.952L1782.91 653.018L1783.13 653.097L1783.21 653.309L1787.83 665.439L1794.14 673.468L1805.65 682.68L1808.28 683.731L1808.79 683.474L1808.47 682.833L1805.05 679.404L1801.56 675.919L1801.51 675.867L1801.48 675.804L1797.99 669.414L1797.97 669.382L1797.96 669.349L1794.47 660.053L1794.44 659.968V655.155L1795.07 655.33L1811.9 659.969L1835.08 664.028L1865.28 666.351L1865.28 666.352L1885.03 668.093L1912.31 668.672L1941.89 667.512L1962.21 665.191L1982.53 662.868L2005.17 658.805L2005.88 658.677L2005.75 659.386L2004.59 665.777L2004.58 665.839L2004.55 665.895L2001.65 672.286L2001.62 672.339L2001.58 672.385L1997.52 677.615L1997.5 677.639L1997.48 677.661L1993.41 681.728L1993.38 681.755L1993.35 681.779L1987.17 686.276V687.051L1992.86 684.981L1998.6 682.108L2006.66 676.353L2010.66 671.781L2015.27 664.285L2017 660.839L2018.15 657.95L2018.23 657.773L2020.76 656.506L2020.8 656.495L2032.4 653.014L2044 648.376L2044.68 648.101V659.352ZM2076.03 497.934L2070.22 516.525L2070.21 516.549L2070.2 516.573L2066.72 524.707L2066.72 524.714L2066.71 524.72L2059.16 540.988L2059.15 541.008L2059.14 541.027L2050.43 556.132L2050.41 556.151L2050.4 556.168L2039.95 571.273L2039.93 571.289L2039.92 571.303L2024.82 589.895L2024.8 589.915L2024.78 589.933L2013.16 601.552L2013.15 601.566L2013.13 601.579L1996.87 615.522L1996.85 615.539L1996.83 615.552L1979.4 627.753L1979.38 627.763L1979.37 627.772L1964.85 636.487L1964.83 636.499L1964.81 636.507L1945.63 645.803L1945.61 645.815L1945.58 645.825L1921.18 654.54L1921.17 654.544L1921.16 654.547L1901.99 660.357L1901.91 660.38L1901.82 660.378L1871.03 659.215H1871.02L1871 659.214L1826.26 654.566L1826.23 654.563L1826.21 654.556L1805.29 649.909L1805.39 648.921L1850.1 647.758L1875.02 644.282L1898.79 638.483L1921.99 630.364L1945.18 619.346L1960.25 610.657L1966.62 606.024L1966.92 605.806L1967.21 606.028L1969.45 607.711L1971.62 608.252H1974.99L1977.15 607.711L1979.39 606.028L1981.59 604.379L1982.1 602.86V599.538L1980.96 596.129L1980.9 595.932L1980.99 595.747L1982.19 593.34L1982.26 593.278L1989.22 586.897L1995.61 580.511L2002.56 572.973L2002.57 572.965L2007.21 568.332L2009.51 565.447L2009.66 565.259H2016.76L2017.74 564.767L2018.82 563.683L2021.02 560.935V554.292L2020.02 552.785L2018.98 552.263L2018.59 552.069L2018.73 551.658L2019.31 549.915L2019.33 549.838L2019.38 549.773L2021.12 547.449L2023.42 544.006L2027.47 537.056L2030.95 530.096L2035.01 521.983L2036.74 517.363L2039.06 510.419L2040.79 504.045L2040.8 504.039L2041.96 499.971L2042.05 499.634L2042.4 499.61L2075.52 497.286L2076.25 497.235L2076.03 497.934ZM2167.27 486.495L2166.97 486.625L2158.83 490.111L2158.81 490.121L2158.79 490.128L2146.01 494.195L2145.99 494.199L2145.98 494.203L2134.35 497.108L2134.34 497.111L2134.33 497.114L2119.22 500.019L2119.21 500.021L2098.89 503.505L2091.04 505.185L2090.77 506H2092.38L2119.65 503.678L2145.16 499.039L2166.05 493.236L2167.07 492.953L2166.65 493.922L2159.67 509.608L2159.67 509.61L2154.44 521.229L2154.44 521.236L2145.73 539.828L2145.71 539.851L2145.7 539.873L2136.99 554.397L2136.97 554.421L2125.93 570.688L2125.92 570.707L2125.91 570.724L2110.22 589.896L2110.2 589.916L2095.65 604.472L2095.63 604.486L2077.04 620.172L2077.03 620.184L2077.01 620.194L2061.91 631.233L2061.89 631.247L2061.87 631.258L2050.25 638.23L2050.23 638.245L2050.2 638.256L2037.42 644.066L2037.38 644.083L2037.34 644.093L2018.17 649.322L2018.15 649.327L2018.14 649.33L1994.9 653.978L1994.89 653.98L1994.87 653.982L1968.15 658.048L1968.13 658.052L1968.1 658.053L1940.22 659.797L1940.2 659.797H1914.62L1914.46 658.824L1941.75 649.534L1958.55 642.004L1979.43 630.404L1999.14 617.068L2016.53 601.995L2029.86 588.085L2047.26 566.631L2058.28 549.228L2068.12 530.121L2073.33 516.224L2079.15 497.635L2079.24 497.33L2079.56 497.289L2097.57 494.965L2116.15 492.062L2116.15 492.061L2136.47 489.157L2166.67 483.35L2167.27 483.236V486.495ZM2039.44 500.798L2038.28 506.027L2038.27 506.048L2038.27 506.069L2034.78 517.108L2034.77 517.141L2034.76 517.173L2028.37 530.536L2028.36 530.544L2023.71 539.839L2023.7 539.873L2023.68 539.904L2016.7 549.781L2016.55 549.992H2010.07L2007.97 551.564L2006.89 553.733L2006.34 555.946V557.563L2006.89 559.776L2008.03 562.05L2008.08 562.156V563.617L2007.96 563.755L2005.06 567.242L2005.05 567.259L2005.03 567.275L1979.47 592.839L1979.23 593.071L1978.93 592.949L1976.11 591.823H1970.02L1969.01 592.839L1967.3 594.546L1966.21 596.174L1965.67 598.357V600.536L1966.22 602.203L1966.3 602.435L1966.17 602.638L1965 604.381L1964.94 604.472L1964.85 604.53L1942.19 618.473L1942.17 618.489L1942.14 618.501L1933.43 622.568L1933.42 622.571L1916.57 630.124L1916.55 630.135L1916.52 630.143L1901.99 634.792L1901.98 634.796L1901.97 634.799L1874.66 641.771L1874.63 641.779L1874.6 641.783L1847.29 645.268L1847.28 645.271L1847.26 645.272L1828.09 646.434H1788.47L1788.38 646.406L1770.37 640.015L1770.34 640.003L1770.31 639.985L1761.59 635.338L1761.57 635.326L1761.55 635.312L1752.83 629.503L1752.82 629.492L1752.8 629.479L1744.67 623.089L1743.46 622.139L1745 622.196L1760.68 622.777H1760.69L1781.01 623.938H1812.93L1833.82 622.197L1851.22 619.877L1872.68 616.398L1894.69 609.444L1923.12 597.842L1941.09 587.99L1957.31 576.981L1970.62 565.405L1981.64 553.813L1992.06 540.5L2000.74 525.447L2007.11 510.97L2010.01 501.13L2010.11 500.778L2010.48 500.771L2038.94 500.19L2039.58 500.177L2039.44 500.798ZM1652.63 493.799L1722.34 497.286H1722.35L1722.36 497.287L1794.97 503.675L1865.24 505.418L2006.98 500.771L2007.7 500.748L2007.47 501.429L2001.66 518.858L2001.65 518.897L2001.63 518.934L1996.4 528.811L1992.92 535.772L1992.9 535.812L1992.87 535.848L1987.65 542.82L1987.64 542.829L1987.63 542.837L1982.4 549.228L1977.18 555.619L1977.16 555.637L1977.14 555.656L1969.01 563.789L1968.99 563.804L1962.02 570.195L1962.01 570.21L1961.99 570.222L1949.21 580.098L1949.19 580.111L1949.17 580.122L1935.81 588.837L1935.79 588.852L1935.76 588.865L1924.14 594.674L1924.14 594.678L1924.13 594.681L1909.02 601.653L1909.01 601.66L1908.99 601.666L1893.89 607.476L1893.88 607.48L1893.87 607.483L1883.41 610.969L1883.39 610.976L1883.37 610.982L1873.49 613.304L1873.49 613.305L1861.29 616.211L1861.27 616.215L1861.25 616.218L1837.43 619.705L1837.41 619.707L1837.39 619.709L1822.29 620.869L1822.29 620.87L1807.76 622.032L1807.74 622.034H1768.78L1768.76 622.032L1738.55 619.709L1738.39 619.696L1738.26 619.591L1730.71 613.201L1730.71 613.197L1721.99 605.644L1721.98 605.632L1712.07 595.723L1702.19 584.684L1702.19 584.676L1695.22 576.543L1695.2 576.528L1695.19 576.513L1688.8 567.798L1688.8 567.791L1681.82 557.914L1681.81 557.899L1681.8 557.883L1676.57 549.169L1676.57 549.161L1676.57 549.154L1667.85 533.467L1667.84 533.451L1667.83 533.433L1661.44 519.49L1661.44 519.472L1661.43 519.456L1652.13 494.473L1651.87 493.761L1652.63 493.799Z" fill="url(#paint26_linear_9_3)"/>
<path d="M1912.88 420.772C1994.79 420.772 2068.91 425.776 2122.51 433.852C2149.32 437.893 2170.92 442.69 2185.76 447.978C2193.19 450.627 2198.82 453.358 2202.54 456.102C2206.32 458.886 2207.76 461.381 2207.76 463.507C2207.76 465.634 2206.32 468.129 2202.54 470.913C2198.82 473.657 2193.19 476.388 2185.76 479.037C2170.92 484.325 2149.32 489.122 2122.51 493.163C2068.91 501.239 1994.79 506.243 1912.88 506.243C1830.97 506.243 1756.85 501.239 1703.25 493.163C1676.44 489.122 1654.85 484.325 1640 479.037C1632.57 476.388 1626.94 473.657 1623.22 470.913C1619.44 468.129 1618 465.634 1618 463.507C1618 461.381 1619.44 458.886 1623.22 456.102C1626.94 453.358 1632.57 450.627 1640 447.978C1654.85 442.69 1676.44 437.893 1703.25 433.852C1756.85 425.776 1830.97 420.772 1912.88 420.772Z" fill="white" stroke="url(#paint27_linear_9_3)" stroke-width="4"/>
<ellipse cx="1910.56" cy="457.117" rx="205.086" ry="23.2392" fill="url(#paint28_linear_9_3)"/>
<line x1="1753.05" y1="379.404" x2="1845.14" y2="478.158" stroke="#28A3B1" stroke-width="3"/>
<path d="M1844.86 474.546L1835.25 468.782L1821.16 460.456L1810.27 451.49L1803.86 445.085L1796.82 436.76L1791.69 428.434L1789.77 421.389L1789.13 412.422L1789.77 407.299L1794.26 400.894L1801.3 396.411L1807.71 393.849L1812.19 393.209H1830.77L1839.1 393.849L1849.35 396.411L1861.52 399.613L1873.69 404.737L1889.06 412.422" stroke="#00329C" stroke-width="8" stroke-linecap="round"/>
<line x1="1804.06" y1="320.685" x2="1861.54" y2="449.788" stroke="#28A3B1" stroke-width="3"/>
<line x1="1738.06" y1="304.024" x2="1847.57" y2="456.163" stroke="#28A3B1" stroke-width="3"/>
<path d="M2087.76 274.108L1959.36 476.87L1957.03 479.194H1846.65L1844.91 476.87L1843.74 469.317L1844.91 459.441L1850.72 448.402L1873.95 422.839L1969.24 324.653L2045.92 245.64V216.591L2049.41 211.363L2058.13 200.905L2063.94 199.162L2072.07 198L2090.66 203.229L2109.25 216.591L2119.71 229.954L2124.94 240.992V252.031L2124.36 256.098L2116.22 266.556L2102.86 271.784L2087.76 274.108Z" fill="url(#paint29_linear_9_3)"/>
<circle cx="1858.27" cy="464.669" r="45.8974" fill="url(#paint30_radial_9_3)"/>
<circle cx="1738.01" cy="302.576" r="5.30979" fill="#28A3B1" stroke="#28A3B1"/>
<circle cx="1803.08" cy="317.682" r="5.30979" fill="#28A3B1" stroke="#28A3B1"/>
<circle cx="1750.79" cy="376.942" r="5.30979" fill="#28A3B1" stroke="#28A3B1"/>
<path d="M1757.18 562.937H1774.6L1783.34 578.542L1774.6 594.145H1757.18L1748.45 578.542L1757.18 562.937Z" stroke="white" stroke-width="2"/>
<path d="M1777.51 597.714L1786.81 581.613H1805.4L1814.69 597.714L1805.4 613.814H1786.81L1777.51 597.714Z" fill="white"/>
<path d="M1703.15 559.95L1712.44 543.346H1731.03L1740.33 559.95L1731.03 576.554H1712.44L1703.15 559.95Z" fill="white"/>
<path d="M1757.17 525.677H1774.61L1783.33 540.777L1774.61 555.878H1757.17L1748.46 540.777L1757.17 525.677Z" stroke="white" stroke-width="2"/>
<path d="M2073.81 596.552L2058.71 608.752L2047.67 601.2L2052.32 596.552L2060.45 587.256L2068 577.96L2075.55 567.503L2081.36 557.626L2085.43 549.492L2088.92 540.778L2091.82 532.644L2108.09 531.482L2124.36 529.158L2120.87 536.711L2114.48 548.331L2104.6 562.855L2097.05 572.151L2088.92 581.446L2081.36 588.999L2073.81 596.552Z" fill="white"/>
<path d="M2048.83 617.467L2040.11 610.495L2022.69 624.439L2028.5 630.249L2048.83 617.467Z" fill="white"/>
<path d="M741.4 2464.6C696.6 2464.6 653.667 2458.73 612.6 2447C571.533 2434.73 538.467 2419 513.4 2399.8L557.4 2302.2C581.4 2319.27 609.667 2333.4 642.2 2344.6C675.267 2355.27 708.6 2360.6 742.2 2360.6C767.8 2360.6 788.333 2358.2 803.8 2353.4C819.8 2348.07 831.533 2340.87 839 2331.8C846.467 2322.73 850.2 2312.33 850.2 2300.6C850.2 2285.67 844.333 2273.93 832.6 2265.4C820.867 2256.33 805.4 2249.13 786.2 2243.8C767 2237.93 745.667 2232.6 722.2 2227.8C699.267 2222.47 676.067 2216.07 652.6 2208.6C629.667 2201.13 608.6 2191.53 589.4 2179.8C570.2 2168.07 554.467 2152.6 542.2 2133.4C530.467 2114.2 524.6 2089.67 524.6 2059.8C524.6 2027.8 533.133 1998.73 550.2 1972.6C567.8 1945.93 593.933 1924.87 628.6 1909.4C663.8 1893.4 707.8 1885.4 760.6 1885.4C795.8 1885.4 830.467 1889.67 864.6 1898.2C898.733 1906.2 928.867 1918.47 955 1935L915 2033.4C888.867 2018.47 862.733 2007.53 836.6 2000.6C810.467 1993.13 784.867 1989.4 759.8 1989.4C734.733 1989.4 714.2 1992.33 698.2 1998.2C682.2 2004.07 670.733 2011.8 663.8 2021.4C656.867 2030.47 653.4 2041.13 653.4 2053.4C653.4 2067.8 659.267 2079.53 671 2088.6C682.733 2097.13 698.2 2104.07 717.4 2109.4C736.6 2114.73 757.667 2120.07 780.6 2125.4C804.067 2130.73 827.267 2136.87 850.2 2143.8C873.667 2150.73 895 2160.07 914.2 2171.8C933.4 2183.53 948.867 2199 960.6 2218.2C972.867 2237.4 979 2261.67 979 2291C979 2322.47 970.2 2351.27 952.6 2377.4C935 2403.53 908.6 2424.6 873.4 2440.6C838.733 2456.6 794.733 2464.6 741.4 2464.6ZM1547.56 1895H1677.16V2455H1547.56V1895ZM1293.16 2455H1163.56V1895H1293.16V2455ZM1557.16 2225.4H1283.56V2115.8H1557.16V2225.4ZM2024.85 2120.6H2294.45V2221.4H2024.85V2120.6ZM2034.45 2351H2339.25V2455H1905.65V1895H2328.85V1999H2034.45V2351Z" fill="#0F1835"/>
<path d="M741.4 2464.6C696.6 2464.6 653.667 2458.73 612.6 2447C571.533 2434.73 538.467 2419 513.4 2399.8L557.4 2302.2C581.4 2319.27 609.667 2333.4 642.2 2344.6C675.267 2355.27 708.6 2360.6 742.2 2360.6C767.8 2360.6 788.333 2358.2 803.8 2353.4C819.8 2348.07 831.533 2340.87 839 2331.8C846.467 2322.73 850.2 2312.33 850.2 2300.6C850.2 2285.67 844.333 2273.93 832.6 2265.4C820.867 2256.33 805.4 2249.13 786.2 2243.8C767 2237.93 745.667 2232.6 722.2 2227.8C699.267 2222.47 676.067 2216.07 652.6 2208.6C629.667 2201.13 608.6 2191.53 589.4 2179.8C570.2 2168.07 554.467 2152.6 542.2 2133.4C530.467 2114.2 524.6 2089.67 524.6 2059.8C524.6 2027.8 533.133 1998.73 550.2 1972.6C567.8 1945.93 593.933 1924.87 628.6 1909.4C663.8 1893.4 707.8 1885.4 760.6 1885.4C795.8 1885.4 830.467 1889.67 864.6 1898.2C898.733 1906.2 928.867 1918.47 955 1935L915 2033.4C888.867 2018.47 862.733 2007.53 836.6 2000.6C810.467 1993.13 784.867 1989.4 759.8 1989.4C734.733 1989.4 714.2 1992.33 698.2 1998.2C682.2 2004.07 670.733 2011.8 663.8 2021.4C656.867 2030.47 653.4 2041.13 653.4 2053.4C653.4 2067.8 659.267 2079.53 671 2088.6C682.733 2097.13 698.2 2104.07 717.4 2109.4C736.6 2114.73 757.667 2120.07 780.6 2125.4C804.067 2130.73 827.267 2136.87 850.2 2143.8C873.667 2150.73 895 2160.07 914.2 2171.8C933.4 2183.53 948.867 2199 960.6 2218.2C972.867 2237.4 979 2261.67 979 2291C979 2322.47 970.2 2351.27 952.6 2377.4C935 2403.53 908.6 2424.6 873.4 2440.6C838.733 2456.6 794.733 2464.6 741.4 2464.6ZM1547.56 1895H1677.16V2455H1547.56V1895ZM1293.16 2455H1163.56V1895H1293.16V2455ZM1557.16 2225.4H1283.56V2115.8H1557.16V2225.4ZM2024.85 2120.6H2294.45V2221.4H2024.85V2120.6ZM2034.45 2351H2339.25V2455H1905.65V1895H2328.85V1999H2034.45V2351Z" fill="url(#paint31_linear_9_3)"/>
<path d="M3303.4 2455V1895H3545.8C3595.93 1895 3639.13 1903.27 3675.4 1919.8C3711.67 1935.8 3739.67 1959 3759.4 1989.4C3779.13 2019.8 3789 2056.07 3789 2098.2C3789 2139.8 3779.13 2175.8 3759.4 2206.2C3739.67 2236.07 3711.67 2259 3675.4 2275C3639.13 2291 3595.93 2299 3545.8 2299H3375.4L3433 2242.2V2455H3303.4ZM3659.4 2455L3519.4 2251.8H3657.8L3799.4 2455H3659.4ZM3433 2256.6L3375.4 2195.8H3538.6C3578.6 2195.8 3608.47 2187.27 3628.2 2170.2C3647.93 2152.6 3657.8 2128.6 3657.8 2098.2C3657.8 2067.27 3647.93 2043.27 3628.2 2026.2C3608.47 2009.13 3578.6 2000.6 3538.6 2000.6H3375.4L3433 1939V2256.6ZM4259.68 2464.6C4215.41 2464.6 4174.35 2457.4 4136.48 2443C4099.15 2428.6 4066.61 2408.33 4038.88 2382.2C4011.68 2356.07 3990.35 2325.4 3974.88 2290.2C3959.95 2255 3952.48 2216.6 3952.48 2175C3952.48 2133.4 3959.95 2095 3974.88 2059.8C3990.35 2024.6 4011.95 1993.93 4039.68 1967.8C4067.41 1941.67 4099.95 1921.4 4137.28 1907C4174.61 1892.6 4215.15 1885.4 4258.88 1885.4C4303.15 1885.4 4343.68 1892.6 4380.48 1907C4417.81 1921.4 4450.08 1941.67 4477.28 1967.8C4505.01 1993.93 4526.61 2024.6 4542.08 2059.8C4557.55 2094.47 4565.28 2132.87 4565.28 2175C4565.28 2216.6 4557.55 2255.27 4542.08 2291C4526.61 2326.2 4505.01 2356.87 4477.28 2383C4450.08 2408.6 4417.81 2428.6 4380.48 2443C4343.68 2457.4 4303.41 2464.6 4259.68 2464.6ZM4258.88 2354.2C4283.95 2354.2 4306.88 2349.93 4327.68 2341.4C4349.01 2332.87 4367.68 2320.6 4383.68 2304.6C4399.68 2288.6 4411.95 2269.67 4420.48 2247.8C4429.55 2225.93 4434.08 2201.67 4434.08 2175C4434.08 2148.33 4429.55 2124.07 4420.48 2102.2C4411.95 2080.33 4399.68 2061.4 4383.68 2045.4C4368.21 2029.4 4349.81 2017.13 4328.48 2008.6C4307.15 2000.07 4283.95 1995.8 4258.88 1995.8C4233.81 1995.8 4210.61 2000.07 4189.28 2008.6C4168.48 2017.13 4150.08 2029.4 4134.08 2045.4C4118.08 2061.4 4105.55 2080.33 4096.48 2102.2C4087.95 2124.07 4083.68 2148.33 4083.68 2175C4083.68 2201.13 4087.95 2225.4 4096.48 2247.8C4105.55 2269.67 4117.81 2288.6 4133.28 2304.6C4149.28 2320.6 4167.95 2332.87 4189.28 2341.4C4210.61 2349.93 4233.81 2354.2 4258.88 2354.2ZM4758.68 2455V1895H4865.88L5196.28 2298.2H5144.28V1895H5272.28V2455H5165.88L4834.68 2051.8H4886.68V2455H4758.68Z" fill="#0F1835"/>
<path d="M3303.4 2455V1895H3545.8C3595.93 1895 3639.13 1903.27 3675.4 1919.8C3711.67 1935.8 3739.67 1959 3759.4 1989.4C3779.13 2019.8 3789 2056.07 3789 2098.2C3789 2139.8 3779.13 2175.8 3759.4 2206.2C3739.67 2236.07 3711.67 2259 3675.4 2275C3639.13 2291 3595.93 2299 3545.8 2299H3375.4L3433 2242.2V2455H3303.4ZM3659.4 2455L3519.4 2251.8H3657.8L3799.4 2455H3659.4ZM3433 2256.6L3375.4 2195.8H3538.6C3578.6 2195.8 3608.47 2187.27 3628.2 2170.2C3647.93 2152.6 3657.8 2128.6 3657.8 2098.2C3657.8 2067.27 3647.93 2043.27 3628.2 2026.2C3608.47 2009.13 3578.6 2000.6 3538.6 2000.6H3375.4L3433 1939V2256.6ZM4259.68 2464.6C4215.41 2464.6 4174.35 2457.4 4136.48 2443C4099.15 2428.6 4066.61 2408.33 4038.88 2382.2C4011.68 2356.07 3990.35 2325.4 3974.88 2290.2C3959.95 2255 3952.48 2216.6 3952.48 2175C3952.48 2133.4 3959.95 2095 3974.88 2059.8C3990.35 2024.6 4011.95 1993.93 4039.68 1967.8C4067.41 1941.67 4099.95 1921.4 4137.28 1907C4174.61 1892.6 4215.15 1885.4 4258.88 1885.4C4303.15 1885.4 4343.68 1892.6 4380.48 1907C4417.81 1921.4 4450.08 1941.67 4477.28 1967.8C4505.01 1993.93 4526.61 2024.6 4542.08 2059.8C4557.55 2094.47 4565.28 2132.87 4565.28 2175C4565.28 2216.6 4557.55 2255.27 4542.08 2291C4526.61 2326.2 4505.01 2356.87 4477.28 2383C4450.08 2408.6 4417.81 2428.6 4380.48 2443C4343.68 2457.4 4303.41 2464.6 4259.68 2464.6ZM4258.88 2354.2C4283.95 2354.2 4306.88 2349.93 4327.68 2341.4C4349.01 2332.87 4367.68 2320.6 4383.68 2304.6C4399.68 2288.6 4411.95 2269.67 4420.48 2247.8C4429.55 2225.93 4434.08 2201.67 4434.08 2175C4434.08 2148.33 4429.55 2124.07 4420.48 2102.2C4411.95 2080.33 4399.68 2061.4 4383.68 2045.4C4368.21 2029.4 4349.81 2017.13 4328.48 2008.6C4307.15 2000.07 4283.95 1995.8 4258.88 1995.8C4233.81 1995.8 4210.61 2000.07 4189.28 2008.6C4168.48 2017.13 4150.08 2029.4 4134.08 2045.4C4118.08 2061.4 4105.55 2080.33 4096.48 2102.2C4087.95 2124.07 4083.68 2148.33 4083.68 2175C4083.68 2201.13 4087.95 2225.4 4096.48 2247.8C4105.55 2269.67 4117.81 2288.6 4133.28 2304.6C4149.28 2320.6 4167.95 2332.87 4189.28 2341.4C4210.61 2349.93 4233.81 2354.2 4258.88 2354.2ZM4758.68 2455V1895H4865.88L5196.28 2298.2H5144.28V1895H5272.28V2455H5165.88L4834.68 2051.8H4886.68V2455H4758.68Z" fill="url(#paint32_linear_9_3)"/>
<path d="M540.054 3012V2684.97H667.594C696.248 2684.97 720.697 2689.49 740.942 2698.52C761.186 2707.55 776.759 2720.63 787.66 2737.76C798.561 2754.89 804.011 2775.3 804.011 2798.97C804.011 2822.64 798.561 2843.04 787.66 2860.17C776.759 2876.98 761.186 2890.07 740.942 2899.41C720.697 2908.44 696.248 2912.96 667.594 2912.96H565.749L586.772 2891V3012H540.054ZM586.772 2895.67L565.749 2872.31H666.193C696.092 2872.31 718.673 2865.93 733.934 2853.16C749.507 2840.39 757.293 2822.32 757.293 2798.97C757.293 2775.61 749.507 2757.54 733.934 2744.77C718.673 2732 696.092 2725.62 666.193 2725.62H565.749L586.772 2702.26V2895.67ZM1107.17 2684.97H1153.89V3012H1107.17V2684.97ZM919.365 3012H872.647V2684.97H919.365V3012ZM1111.38 2866.24H914.693V2825.59H1111.38V2866.24ZM1202.25 3012L1350.35 2684.97H1396.6L1545.16 3012H1496.11L1363.9 2711.14H1382.59L1250.37 3012H1202.25ZM1265.32 2930.24L1277.94 2892.87H1462.01L1475.55 2930.24H1265.32ZM1593.95 3012V2684.97H1721.49C1750.14 2684.97 1774.59 2689.49 1794.84 2698.52C1815.08 2707.55 1830.65 2720.63 1841.55 2737.76C1852.46 2754.89 1857.91 2775.3 1857.91 2798.97C1857.91 2822.64 1852.46 2843.04 1841.55 2860.17C1830.65 2876.98 1815.08 2889.91 1794.84 2898.94C1774.59 2907.97 1750.14 2912.49 1721.49 2912.49H1619.64L1640.67 2891V3012H1593.95ZM1812.59 3012L1729.43 2893.34H1779.42L1863.51 3012H1812.59ZM1640.67 2895.67L1619.64 2872.78H1720.09C1749.99 2872.78 1772.57 2866.4 1787.83 2853.63C1803.4 2840.54 1811.19 2822.32 1811.19 2798.97C1811.19 2775.61 1803.4 2757.54 1787.83 2744.77C1772.57 2732 1749.99 2725.62 1720.09 2725.62H1619.64L1640.67 2702.26V2895.67ZM1933.38 3012V2684.97H1971.69L2118.39 2932.11H2097.83L2242.66 2684.97H2280.97L2281.43 3012H2236.58L2236.12 2755.52H2246.86L2117.92 2972.29H2096.43L1966.55 2755.52H1978.23V3012H1933.38ZM2330.06 3012L2478.15 2684.97H2524.4L2672.97 3012H2623.91L2491.7 2711.14H2510.39L2378.18 3012H2330.06ZM2393.13 2930.24L2405.74 2892.87H2589.81L2603.36 2930.24H2393.13ZM2863.42 3015.74C2838.5 3015.74 2815.45 3011.69 2794.27 3003.59C2773.41 2995.18 2755.19 2983.5 2739.61 2968.55C2724.35 2953.29 2712.36 2935.54 2703.64 2915.29C2694.92 2895.05 2690.56 2872.78 2690.56 2848.49C2690.56 2824.19 2694.92 2801.92 2703.64 2781.68C2712.36 2761.44 2724.51 2743.84 2740.08 2728.89C2755.65 2713.63 2773.87 2701.95 2794.74 2693.85C2815.92 2685.44 2838.97 2681.24 2863.88 2681.24C2889.11 2681.24 2912.32 2685.6 2933.49 2694.32C2954.99 2702.73 2973.21 2715.34 2988.15 2732.16L2957.79 2761.59C2945.33 2748.51 2931.31 2738.85 2915.74 2732.63C2900.17 2726.09 2883.51 2722.82 2865.75 2722.82C2847.38 2722.82 2830.25 2725.93 2814.36 2732.16C2798.79 2738.39 2785.24 2747.11 2773.72 2758.32C2762.2 2769.53 2753.16 2782.93 2746.62 2798.5C2740.39 2813.76 2737.28 2830.42 2737.28 2848.49C2737.28 2866.55 2740.39 2883.37 2746.62 2898.94C2753.16 2914.2 2762.2 2927.44 2773.72 2938.65C2785.24 2949.86 2798.79 2958.59 2814.36 2964.81C2830.25 2971.04 2847.38 2974.16 2865.75 2974.16C2883.51 2974.16 2900.17 2971.04 2915.74 2964.81C2931.31 2958.27 2945.33 2948.31 2957.79 2934.92L2988.15 2964.35C2973.21 2981.17 2954.99 2993.94 2933.49 3002.66C2912.32 3011.38 2888.96 3015.74 2863.42 3015.74ZM3097.31 2826.06H3265.5V2865.77H3097.31V2826.06ZM3101.52 2971.36H3292.13V3012H3054.8V2684.97H3285.59V2725.62H3101.52V2971.36ZM3503.26 3015.74C3460.28 3015.74 3426.48 3003.44 3401.88 2978.83C3377.28 2954.23 3364.97 2918.25 3364.97 2870.91V2684.97H3411.69V2869.04C3411.69 2905.48 3419.63 2932.11 3435.52 2948.93C3451.71 2965.75 3474.45 2974.16 3503.73 2974.16C3533.31 2974.16 3556.05 2965.75 3571.93 2948.93C3588.13 2932.11 3596.23 2905.48 3596.23 2869.04V2684.97H3641.54V2870.91C3641.54 2918.25 3629.24 2954.23 3604.64 2978.83C3580.34 3003.44 3546.55 3015.74 3503.26 3015.74ZM3796.33 3012V2725.62H3684.21V2684.97H3954.7V2725.62H3842.58V3012H3796.33ZM4005.59 3012V2684.97H4052.31V3012H4005.59ZM4296.44 3015.74C4271.52 3015.74 4248.48 3011.69 4227.3 3003.59C4206.43 2995.18 4188.21 2983.5 4172.64 2968.55C4157.38 2953.29 4145.38 2935.54 4136.66 2915.29C4127.94 2895.05 4123.58 2872.78 4123.58 2848.49C4123.58 2824.19 4127.94 2801.92 4136.66 2781.68C4145.38 2761.44 4157.53 2743.84 4173.1 2728.89C4188.68 2713.63 4206.9 2701.95 4227.76 2693.85C4248.94 2685.44 4271.99 2681.24 4296.91 2681.24C4322.14 2681.24 4345.34 2685.6 4366.52 2694.32C4388.01 2702.73 4406.23 2715.34 4421.18 2732.16L4390.81 2761.59C4378.35 2748.51 4364.34 2738.85 4348.76 2732.63C4333.19 2726.09 4316.53 2722.82 4298.78 2722.82C4280.4 2722.82 4263.27 2725.93 4247.39 2732.16C4231.81 2738.39 4218.27 2747.11 4206.74 2758.32C4195.22 2769.53 4186.19 2782.93 4179.64 2798.5C4173.42 2813.76 4170.3 2830.42 4170.3 2848.49C4170.3 2866.55 4173.42 2883.37 4179.64 2898.94C4186.19 2914.2 4195.22 2927.44 4206.74 2938.65C4218.27 2949.86 4231.81 2958.59 4247.39 2964.81C4263.27 2971.04 4280.4 2974.16 4298.78 2974.16C4316.53 2974.16 4333.19 2971.04 4348.76 2964.81C4364.34 2958.27 4378.35 2948.31 4390.81 2934.92L4421.18 2964.35C4406.23 2981.17 4388.01 2993.94 4366.52 3002.66C4345.34 3011.38 4321.98 3015.74 4296.44 3015.74ZM4430.55 3012L4578.64 2684.97H4624.89L4773.46 3012H4724.4L4592.19 2711.14H4610.88L4478.67 3012H4430.55ZM4493.62 2930.24L4506.23 2892.87H4690.3L4703.85 2930.24H4493.62ZM4822.24 3012V2684.97H4868.96V2971.36H5046.02V3012H4822.24ZM5191.74 3015.74C5166.82 3015.74 5143 3012 5120.26 3004.53C5097.53 2996.74 5079.62 2986.77 5066.54 2974.63L5083.82 2938.19C5096.28 2949.09 5112.16 2958.12 5131.47 2965.28C5150.79 2972.45 5170.87 2976.03 5191.74 2976.03C5210.74 2976.03 5226.16 2973.85 5237.99 2969.49C5249.83 2965.13 5258.55 2959.21 5264.15 2951.73C5269.76 2943.95 5272.56 2935.23 5272.56 2925.57C5272.56 2914.36 5268.83 2905.33 5261.35 2898.48C5254.19 2891.62 5244.69 2886.17 5232.85 2882.12C5221.33 2877.76 5208.56 2874.03 5194.54 2870.91C5180.53 2867.8 5166.36 2864.22 5152.03 2860.17C5138.02 2855.81 5125.09 2850.36 5113.25 2843.81C5101.73 2837.27 5092.39 2828.55 5085.22 2817.65C5078.06 2806.44 5074.48 2792.11 5074.48 2774.67C5074.48 2757.85 5078.84 2742.44 5087.56 2728.42C5096.59 2714.09 5110.3 2702.73 5128.67 2694.32C5147.36 2685.6 5171.03 2681.24 5199.68 2681.24C5218.68 2681.24 5237.52 2683.73 5256.21 2688.71C5274.9 2693.69 5291.1 2700.86 5304.8 2710.2L5289.38 2747.58C5275.37 2738.23 5260.57 2731.54 5245 2727.49C5229.43 2723.13 5214.32 2720.95 5199.68 2720.95C5181.31 2720.95 5166.2 2723.28 5154.37 2727.95C5142.53 2732.63 5133.81 2738.85 5128.2 2746.64C5122.91 2754.43 5120.26 2763.15 5120.26 2772.8C5120.26 2784.33 5123.84 2793.52 5131.01 2800.37C5138.48 2807.22 5147.98 2812.67 5159.51 2816.72C5171.34 2820.77 5184.27 2824.5 5198.28 2827.93C5212.3 2831.05 5226.31 2834.63 5240.33 2838.68C5254.65 2842.72 5267.58 2848.02 5279.1 2854.56C5290.94 2861.1 5300.44 2869.82 5307.6 2880.72C5314.77 2891.62 5318.35 2905.64 5318.35 2922.77C5318.35 2939.28 5313.83 2954.69 5304.8 2969.02C5295.77 2983.03 5281.75 2994.4 5262.75 3003.12C5244.07 3011.53 5220.39 3015.74 5191.74 3015.74Z" fill="#0F1835"/>
<g clip-path="url(#clip0_9_3)">
<path d="M2498.8 2455L2748.4 1895H2876.4L3126.8 2455H2990.8L2786 1960.6H2837.2L2631.6 2455H2498.8ZM2623.6 2335L2658 2236.6H2946L2981.2 2335H2623.6Z" fill="#0F1835"/>
<path d="M2498.8 2455L2748.4 1895H2876.4L3126.8 2455H2990.8L2786 1960.6H2837.2L2631.6 2455H2498.8ZM2623.6 2335L2658 2236.6H2946L2981.2 2335H2623.6Z" fill="url(#paint33_linear_9_3)"/>
</g>
<defs>
<linearGradient id="paint0_linear_9_3" x1="2823" y1="478" x2="2823" y2="2456" gradientUnits="userSpaceOnUse">
<stop stop-color="#BDFF30"/>
<stop offset="0.346154" stop-color="#28A3B1"/>
<stop offset="0.572115" stop-color="#0039B4"/>
<stop offset="0.9999" stop-color="white"/>
</linearGradient>
<linearGradient id="paint1_linear_9_3" x1="2823" y1="478" x2="2823" y2="2456" gradientUnits="userSpaceOnUse">
<stop stop-color="#BDFF30"/>
<stop offset="0.346154" stop-color="#28A3B1"/>
<stop offset="0.572115" stop-color="#0039B4"/>
<stop offset="0.9999" stop-color="white"/>
</linearGradient>
<linearGradient id="paint2_linear_9_3" x1="2823" y1="478" x2="2823" y2="2456" gradientUnits="userSpaceOnUse">
<stop stop-color="#BDFF30"/>
<stop offset="0.346154" stop-color="#28A3B1"/>
<stop offset="0.572115" stop-color="#0039B4"/>
<stop offset="0.9999" stop-color="white"/>
</linearGradient>
<linearGradient id="paint3_linear_9_3" x1="2823" y1="478" x2="2823" y2="2456" gradientUnits="userSpaceOnUse">
<stop stop-color="#BDFF30"/>
<stop offset="0.346154" stop-color="#28A3B1"/>
<stop offset="0.572115" stop-color="#0039B4"/>
<stop offset="0.9999" stop-color="white"/>
</linearGradient>
<linearGradient id="paint4_linear_9_3" x1="2823" y1="478" x2="2823" y2="2456" gradientUnits="userSpaceOnUse">
<stop stop-color="#BDFF30"/>
<stop offset="0.346154" stop-color="#28A3B1"/>
<stop offset="0.572115" stop-color="#0039B4"/>
<stop offset="0.9999" stop-color="white"/>
</linearGradient>
<linearGradient id="paint5_linear_9_3" x1="2823" y1="478" x2="2823" y2="2456" gradientUnits="userSpaceOnUse">
<stop stop-color="#BDFF30"/>
<stop offset="0.346154" stop-color="#28A3B1"/>
<stop offset="0.572115" stop-color="#0039B4"/>
<stop offset="0.9999" stop-color="white"/>
</linearGradient>
<linearGradient id="paint6_linear_9_3" x1="2823" y1="478" x2="2823" y2="2456" gradientUnits="userSpaceOnUse">
<stop stop-color="#BDFF30"/>
<stop offset="0.346154" stop-color="#28A3B1"/>
<stop offset="0.572115" stop-color="#0039B4"/>
<stop offset="0.9999" stop-color="white"/>
</linearGradient>
<linearGradient id="paint7_linear_9_3" x1="2823" y1="478" x2="2823" y2="2456" gradientUnits="userSpaceOnUse">
<stop stop-color="#BDFF30"/>
<stop offset="0.346154" stop-color="#28A3B1"/>
<stop offset="0.572115" stop-color="#0039B4"/>
<stop offset="0.9999" stop-color="white"/>
</linearGradient>
<linearGradient id="paint8_linear_9_3" x1="2823" y1="478" x2="2823" y2="2456" gradientUnits="userSpaceOnUse">
<stop stop-color="#BDFF30"/>
<stop offset="0.346154" stop-color="#28A3B1"/>
<stop offset="0.572115" stop-color="#0039B4"/>
<stop offset="0.9999" stop-color="white"/>
</linearGradient>
<linearGradient id="paint9_linear_9_3" x1="2823" y1="478" x2="2823" y2="2456" gradientUnits="userSpaceOnUse">
<stop stop-color="#BDFF30"/>
<stop offset="0.346154" stop-color="#28A3B1"/>
<stop offset="0.572115" stop-color="#0039B4"/>
<stop offset="0.9999" stop-color="white"/>
</linearGradient>
<linearGradient id="paint10_linear_9_3" x1="2823" y1="478" x2="2823" y2="2456" gradientUnits="userSpaceOnUse">
<stop stop-color="#BDFF30"/>
<stop offset="0.346154" stop-color="#28A3B1"/>
<stop offset="0.572115" stop-color="#0039B4"/>
<stop offset="0.9999" stop-color="white"/>
</linearGradient>
<linearGradient id="paint11_linear_9_3" x1="2823" y1="478" x2="2823" y2="2456" gradientUnits="userSpaceOnUse">
<stop stop-color="#BDFF30"/>
<stop offset="0.346154" stop-color="#28A3B1"/>
<stop offset="0.572115" stop-color="#0039B4"/>
<stop offset="0.9999" stop-color="white"/>
</linearGradient>
<linearGradient id="paint12_linear_9_3" x1="2823" y1="478" x2="2823" y2="2456" gradientUnits="userSpaceOnUse">
<stop stop-color="#BDFF30"/>
<stop offset="0.346154" stop-color="#28A3B1"/>
<stop offset="0.572115" stop-color="#0039B4"/>
<stop offset="0.9999" stop-color="white"/>
</linearGradient>
<linearGradient id="paint13_linear_9_3" x1="2823" y1="478" x2="2823" y2="2456" gradientUnits="userSpaceOnUse">
<stop stop-color="#BDFF30"/>
<stop offset="0.346154" stop-color="#28A3B1"/>
<stop offset="0.572115" stop-color="#0039B4"/>
<stop offset="0.9999" stop-color="white"/>
</linearGradient>
<linearGradient id="paint14_linear_9_3" x1="2823" y1="478" x2="2823" y2="2456" gradientUnits="userSpaceOnUse">
<stop stop-color="#BDFF30"/>
<stop offset="0.346154" stop-color="#28A3B1"/>
<stop offset="0.572115" stop-color="#0039B4"/>
<stop offset="0.9999" stop-color="white"/>
</linearGradient>
<linearGradient id="paint15_linear_9_3" x1="2823" y1="478" x2="2823" y2="2456" gradientUnits="userSpaceOnUse">
<stop stop-color="#BDFF30"/>
<stop offset="0.346154" stop-color="#28A3B1"/>
<stop offset="0.572115" stop-color="#0039B4"/>
<stop offset="0.9999" stop-color="white"/>
</linearGradient>
<linearGradient id="paint16_linear_9_3" x1="2823" y1="478" x2="2823" y2="2456" gradientUnits="userSpaceOnUse">
<stop stop-color="#BDFF30"/>
<stop offset="0.346154" stop-color="#28A3B1"/>
<stop offset="0.572115" stop-color="#0039B4"/>
<stop offset="0.9999" stop-color="white"/>
</linearGradient>
<linearGradient id="paint17_linear_9_3" x1="2823" y1="478" x2="2823" y2="2456" gradientUnits="userSpaceOnUse">
<stop stop-color="#BDFF30"/>
<stop offset="0.346154" stop-color="#28A3B1"/>
<stop offset="0.572115" stop-color="#0039B4"/>
<stop offset="0.9999" stop-color="white"/>
</linearGradient>
<linearGradient id="paint18_linear_9_3" x1="2823" y1="478" x2="2823" y2="2456" gradientUnits="userSpaceOnUse">
<stop stop-color="#BDFF30"/>
<stop offset="0.346154" stop-color="#28A3B1"/>
<stop offset="0.572115" stop-color="#0039B4"/>
<stop offset="0.9999" stop-color="white"/>
</linearGradient>
<linearGradient id="paint19_linear_9_3" x1="2823" y1="478" x2="2823" y2="2456" gradientUnits="userSpaceOnUse">
<stop stop-color="#BDFF30"/>
<stop offset="0.346154" stop-color="#28A3B1"/>
<stop offset="0.572115" stop-color="#0039B4"/>
<stop offset="0.9999" stop-color="white"/>
</linearGradient>
<linearGradient id="paint20_linear_9_3" x1="2823" y1="478" x2="2823" y2="2456" gradientUnits="userSpaceOnUse">
<stop stop-color="#BDFF30"/>
<stop offset="0.346154" stop-color="#28A3B1"/>
<stop offset="0.572115" stop-color="#0039B4"/>
<stop offset="0.9999" stop-color="white"/>
</linearGradient>
<linearGradient id="paint21_linear_9_3" x1="2823" y1="478" x2="2823" y2="2456" gradientUnits="userSpaceOnUse">
<stop stop-color="#BDFF30"/>
<stop offset="0.346154" stop-color="#28A3B1"/>
<stop offset="0.572115" stop-color="#0039B4"/>
<stop offset="0.9999" stop-color="white"/>
</linearGradient>
<linearGradient id="paint22_linear_9_3" x1="2823" y1="478" x2="2823" y2="2456" gradientUnits="userSpaceOnUse">
<stop stop-color="#BDFF30"/>
<stop offset="0.346154" stop-color="#28A3B1"/>
<stop offset="0.572115" stop-color="#0039B4"/>
<stop offset="0.9999" stop-color="white"/>
</linearGradient>
<linearGradient id="paint23_linear_9_3" x1="2823" y1="478" x2="2823" y2="2456" gradientUnits="userSpaceOnUse">
<stop stop-color="#BDFF30"/>
<stop offset="0.346154" stop-color="#28A3B1"/>
<stop offset="0.572115" stop-color="#0039B4"/>
<stop offset="0.9999" stop-color="white"/>
</linearGradient>
<linearGradient id="paint24_linear_9_3" x1="2823" y1="478" x2="2823" y2="2456" gradientUnits="userSpaceOnUse">
<stop stop-color="#BDFF30"/>
<stop offset="0.346154" stop-color="#28A3B1"/>
<stop offset="0.75" stop-color="#00329C"/>
<stop offset="1" stop-color="#0F1835"/>
</linearGradient>
<linearGradient id="paint25_linear_9_3" x1="3681.27" y1="186" x2="3681.27" y2="664.294" gradientUnits="userSpaceOnUse">
<stop stop-color="#28A3B1"/>
<stop offset="1" stop-color="#00329C"/>
</linearGradient>
<linearGradient id="paint26_linear_9_3" x1="1909.57" y1="483.236" x2="1909.57" y2="696.399" gradientUnits="userSpaceOnUse">
<stop stop-color="#28A3B1"/>
<stop offset="1" stop-color="#00329C"/>
</linearGradient>
<linearGradient id="paint27_linear_9_3" x1="2205.69" y1="466.993" x2="1656.09" y2="444.335" gradientUnits="userSpaceOnUse">
<stop stop-color="#28A3B1"/>
<stop offset="1" stop-color="#00329C"/>
</linearGradient>
<linearGradient id="paint28_linear_9_3" x1="1705.47" y1="457.117" x2="2115.64" y2="457.117" gradientUnits="userSpaceOnUse">
<stop stop-color="#28A3B1"/>
</linearGradient>
<linearGradient id="paint29_linear_9_3" x1="1984.34" y1="198" x2="1984.34" y2="479.194" gradientUnits="userSpaceOnUse">
<stop stop-color="#28A3B1"/>
<stop offset="1" stop-color="#00329C"/>
</linearGradient>
<radialGradient id="paint30_radial_9_3" cx="0" cy="0" r="1" gradientUnits="userSpaceOnUse" gradientTransform="translate(1858.27 464.669) rotate(90) scale(45.8974)">
<stop stop-color="white"/>
<stop offset="1" stop-color="#737373" stop-opacity="0"/>
</radialGradient>
<linearGradient id="paint31_linear_9_3" x1="1433.5" y1="1880" x2="1433.5" y2="2456" gradientUnits="userSpaceOnUse">
<stop stop-color="#00329C"/>
<stop offset="1" stop-color="#0F1835"/>
</linearGradient>
<linearGradient id="paint32_linear_9_3" x1="4288" y1="1880" x2="4288" y2="2456" gradientUnits="userSpaceOnUse">
<stop stop-color="#00329C"/>
<stop offset="1" stop-color="#0F1835"/>
</linearGradient>
<linearGradient id="paint33_linear_9_3" x1="2812.5" y1="1880" x2="2812.5" y2="2456" gradientUnits="userSpaceOnUse">
<stop stop-color="#00329C"/>
<stop offset="1" stop-color="#0F1835"/>
</linearGradient>
<clipPath id="clip0_9_3">
<rect width="629" height="560" fill="white" transform="translate(2498 1895)"/>
</clipPath>
</defs>
</svg>
